<?xml version="1.0" standalone="no"?>
<!DOCTYPE svg PUBLIC "-//W3C//DTD SVG 1.1//EN" "http://www.w3.org/Graphics/SVG/1.1/DTD/svg11.dtd" >
<svg xmlns="http://www.w3.org/2000/svg" xmlns:xlink="http://www.w3.org/1999/xlink" version="1.1">
<metadata>
Created by FontForge 20150102 at Fri Mar 13 09:12:59 2015
 By uniteet7
Copyright 2001 Apple Computer, Inc.
</metadata>
<defs>
<font id="AppleCasual" horiz-adv-x="500" >
  <font-face 
    font-family="Apple Casual"
    font-weight="400"
    font-stretch="normal"
    units-per-em="1000"
    panose-1="0 1 4 0 0 0 0 0 0 0"
    ascent="800"
    descent="-200"
    x-height="450"
    cap-height="624"
    bbox="9 -267 813 846"
    underline-thickness="20"
    underline-position="-123"
    unicode-range="U+0009-FB02"
  />
<missing-glyph 
d="M63 0v800h375v-800h-375zM125 63h250v675h-250v-675z" />
    <glyph glyph-name="trademark" unicode="TM" horiz-adv-x="703" 
d="M632 465q-1 -13 -17.5 -20t-31.5 -7q-30 0 -29 18q3 62 -15 140q-20 -25 -59 -76q-19 -25 -30 -25q-9 0 -27 22q-11 14 -53 67l1 -115q0 -22 -33 -22t-33 22l-1 194q0 15 19 24q16 7 32 7q21 0 30 -11l84 -101q18 24 56 72q32 39 51 39q14 0 23 -23q37 -99 33 -205z
M278 669q0 -30 -29 -39l-55 -17v-166q0 -25 -35 -25q-28 0 -28 21v151l-31 -6q-5 -1 -11 -1q-38 0 -38 35q0 30 33 39l149 42q6 1 12 1q33 0 33 -35z" />
    <glyph glyph-name="ellipsis" unicode="&#x2e;&#x2e;&#x2e;" horiz-adv-x="682" 
d="M628 75q0 -33 -31.5 -58.5t-65.5 -25.5q-62 0 -62 84q0 33 32 58q29 23 63 23q64 0 64 -81zM416 74q0 -31 -27 -60.5t-58 -29.5q-30 0 -48 31q-15 27 -15 59q0 31 29 54t61 23q58 0 58 -77zM217 70q0 -36 -26.5 -59.5t-62.5 -23.5q-58 0 -58 80q0 35 23.5 62t57.5 27
q66 0 66 -86z" />
    <glyph glyph-name="fi" unicode="fi" horiz-adv-x="594" 
d="M497 36q0 -25 -16.5 -41t-41.5 -16t-41 16t-16 41l-1 295l-124 -50v-298q0 -25 -16 -41t-41 -16t-41.5 16t-16.5 41v251l-2 -1q-10 -5 -23 -5q-24 0 -40 18t-16 42q0 37 36 52q15 6 45 19v132q-8 78 49.5 135t136.5 57q90 0 148 -80q12 -17 12 -34q0 -24 -18 -41t-42 -17
q-27 0 -45 25q-23 33 -63 33q-27 0 -44.5 -17t-18.5 -44v-98q142 63 188 63q51 0 51 -57z" />
    <glyph glyph-name="fl" unicode="fl" horiz-adv-x="641" 
d="M522 32q0 -26 -16 -42t-42 -16q-25 0 -41 16.5t-16 41.5v480q-7 -1 -13 -1q-27 0 -46 25q-23 33 -62 33q-27 0 -44.5 -17t-19.5 -44q1 -5 1 -86l81 30q11 4 21 4q24 0 40 -18t16 -42q0 -38 -38 -52l-120 -44v-317q0 -25 -15.5 -41t-41.5 -16q-25 0 -41.5 15.5t-16.5 41.5
v276q-8 -3 -16 -3q-23 0 -39.5 18t-16.5 42q0 37 38 52l34 13v110q-8 78 49.5 135t135.5 57q75 0 128 -56q17 18 44 18q26 0 41.5 -16t15.5 -41v-556z" />
    <glyph glyph-name=".notdef" 
d="M63 0v800h375v-800h-375zM125 63h250v675h-250v-675z" />
    <glyph glyph-name=".null" horiz-adv-x="0" 
 />
    <glyph glyph-name=".null" horiz-adv-x="0" 
 />
    <glyph glyph-name="nonmarkingreturn" unicode="&#x9;" 
 />
    <glyph glyph-name="nonmarkingreturn" unicode="&#xd;" 
 />
    <glyph glyph-name="nonmarkingreturn" unicode="&#xa;" 
 />
    <glyph glyph-name="space" unicode=" " horiz-adv-x="531" 
 />
    <glyph glyph-name="RS" 
 />
    <glyph glyph-name="exclam" unicode="!" horiz-adv-x="344" 
d="M252 255q0 -25 -17 -41.5t-42 -16.5q-26 0 -42.5 16t-16.5 42v372q0 24 16 40t40 16q26 0 44 -16.5t18 -42.5q2 -91 2 -183t-2 -186zM256 77q0 -29 -20 -49t-49 -20t-49 20t-20 49t20 49t49 20t49 -20t20 -49z" />
    <glyph glyph-name="quotedbl" unicode="&#x22;" horiz-adv-x="437" 
d="M376 510q0 -24 -15.5 -40.5t-38.5 -16.5t-38.5 16.5t-15.5 40.5v112q0 24 15 41t39 17t39 -17t15 -41v-112zM182 512q0 -23 -15.5 -40t-38.5 -17q-24 0 -39.5 17t-15.5 41v112q0 23 15 40t38 17q24 0 40 -17t16 -41v-112z" />
    <glyph glyph-name="numbersign" unicode="#" horiz-adv-x="782" 
d="M727 238q0 -56 -56 -57l-89 -1v-91q0 -32 -26.5 -55.5t-58.5 -23.5q-42 0 -42 43v126l-121 -2v-95q0 -33 -24.5 -58t-57.5 -25q-41 0 -41 40v137l-112 -2q-26 0 -42.5 16.5t-16.5 41.5t15.5 38.5t41.5 13.5l114 2v120l-89 -18q-6 -1 -12 -1q-24 0 -40 13t-16 37
q0 46 48 55l109 22v56q0 33 24 58t58 25q41 0 41 -40v-81l121 21v56q0 32 26 55.5t58 23.5q43 0 43 -43v-70l77 13q6 1 12 1q24 0 40 -17t16 -42q0 -38 -48 -46l-97 -17v-177l87 1q26 0 42 -13.5t16 -39.5zM455 289v156l-121 -20v-138z" />
    <glyph glyph-name="dollar" unicode="$" horiz-adv-x="625" 
d="M553 152q0 -72 -68 -121q-60 -43 -136 -48l-5 -50q-5 -51 -57 -51q-59 0 -52 57l6 57q-82 34 -137 114q-12 17 -12 33q0 24 18.5 40.5t42.5 16.5q23 0 48 -28q31 -34 50 -47l16 149q-98 55 -129 121q-15 32 -15 62q0 59 50 103q44 39 127 49l8 74q5 45 53 45q26 0 38 -15
q17 -22 15 -46l-6 -65q63 -18 116 -62q22 -18 22 -43q0 -20 -15 -39.5t-34 -19.5q-13 0 -51 24q-21 11 -49 25l-13 -143q169 -82 169 -192zM292 508q-20 2 -42 -15t-22 -38q0 -37 51 -63zM436 151q0 31 -64 68l-12 -118q25 3 47 14q29 15 29 36z" />
    <glyph glyph-name="percent" unicode="%" horiz-adv-x="782" 
d="M730 169q0 -66 -47 -112.5t-113 -46.5t-112.5 46.5t-46.5 112.5t46.5 113t112.5 47t113 -47t47 -113zM707 672q0 -17 -12 -34l-467 -664q-18 -25 -46 -25q-23 0 -41.5 17t-18.5 40q0 17 12 34l316 445l-55 6q-25 -57 -69 -86t-97 -29q-74 0 -125.5 51.5t-51.5 124.5
q0 74 51.5 125.5t125.5 51.5q61 0 108.5 -37t62.5 -96l119 -9l82 117q18 25 45 25q24 0 42.5 -16.5t18.5 -40.5zM291 552q0 25 -18.5 43.5t-43.5 18.5t-43 -18.5t-18 -43.5t18 -43t43 -18t43.5 18t18.5 43zM615 169q0 18 -13.5 31.5t-31.5 13.5t-31 -13.5t-13 -31.5t13 -31
t31 -13t31.5 13t13.5 31z" />
    <glyph glyph-name="ampersand" unicode="&#x26;" horiz-adv-x="641" 
d="M587 276q-36 -78 -95 -149q45 -32 75 -35q45 -4 45 -49q0 -22 -15 -37.5t-40 -12.5q-57 6 -134 61q-83 -77 -175 -77q-84 0 -144.5 61t-60.5 140q0 105 110 166q-47 72 -47 120q0 63 45.5 111.5t104.5 48.5q47 0 86 -35q63 -56 63 -116q0 -80 -103 -157q59 -71 114 -124
q51 62 81 126q14 30 43 30q21 0 37 -14.5t16 -34.5q0 -12 -6 -23zM276 514q-5 4 -16 4q-20 0 -37 -11q-20 -14 -20 -37q0 -22 40 -78q58 39 58 76q0 24 -25 46zM345 119q-67 63 -132 144q-69 -34 -69 -91q0 -37 29.5 -65t73.5 -28q50 0 98 40z" />
    <glyph glyph-name="quotesingle" unicode="'" horiz-adv-x="250" 
d="M184 504q0 -24 -15.5 -41t-39.5 -17q-23 0 -38 17t-15 40v122q0 24 15.5 41t39.5 17q23 0 38 -17t15 -40v-122z" />
    <glyph glyph-name="parenleft" unicode="(" horiz-adv-x="360" 
d="M321 -68q0 -23 -17 -41.5t-40 -18.5q-18 0 -35 13q-74 56 -113 174q-33 99 -33 208q0 218 123 376q18 23 44 23q24 0 42 -17t18 -41q0 -17 -14 -35q-98 -126 -98 -304q0 -79 22 -157q27 -98 77 -135q24 -18 24 -45z" />
    <glyph glyph-name="parenright" unicode=")" horiz-adv-x="360" 
d="M313 267q0 -108 -33 -208q-40 -119 -113 -174q-17 -13 -35 -13q-23 0 -40.5 18.5t-17.5 41.5q0 27 24 45q49 36 77 135q23 80 23 157q0 177 -99 304q-13 17 -13 35q0 24 18 41t42 17q26 0 44 -23q123 -158 123 -376z" />
    <glyph glyph-name="asterisk" unicode="*" horiz-adv-x="493" 
d="M461 576q0 -28 -43 -52q-31 -17 -69 -26q40 -40 40 -76q0 -19 -12 -35t-31 -16q-47 0 -95 83q-52 -74 -110 -74q-26 0 -44 21q-9 10 -9 23q0 45 84 88q-84 42 -84 98q0 18 11.5 33t29.5 15q39 0 90 -54q-2 45 13 77q19 41 61 38q38 -3 38 -62q0 -28 -10 -61q45 28 82 28
t54 -32q4 -8 4 -16z" />
    <glyph glyph-name="plus" unicode="+" horiz-adv-x="562" 
d="M483 253q0 -26 -16 -42t-42 -16l-91 -1v-110q0 -30 -21 -51t-51 -21q-43 0 -43 46v136l-91 1q-57 1 -57 58q0 25 16 41t41 16h91v97q0 29 21.5 50.5t50.5 21.5q43 0 43 -46v-123h91q25 0 41.5 -16t16.5 -41z" />
    <glyph glyph-name="comma" unicode="," horiz-adv-x="297" 
d="M241 43q0 -87 -78 -130q-25 -14 -49 -14q-36 0 -36 23q0 9 41 22q-7 12 16 36q-37 6 -50.5 28.5t-12.5 47.5q1 36 25.5 58.5t60.5 22.5q38 0 60.5 -27.5t22.5 -66.5z" />
    <glyph glyph-name="hyphen" unicode="-" horiz-adv-x="463" 
d="M403 269q0 -25 -16 -41t-41 -16h-225q-25 0 -41 16t-16 41t16 41.5t41 16.5h225q25 0 41 -16.5t16 -41.5z" />
    <glyph glyph-name="hyphen" unicode="&#x2010;" horiz-adv-x="463" 
d="M403 269q0 -25 -16 -41t-41 -16h-225q-25 0 -41 16t-16 41t16 41.5t41 16.5h225q25 0 41 -16.5t16 -41.5z" />
    <glyph glyph-name="period" unicode="." horiz-adv-x="313" 
d="M267 96q0 -33 -24.5 -56.5t-59.5 -23.5q-37 0 -61.5 23.5t-24.5 56.5q0 34 24.5 58t61.5 24q35 0 59.5 -24t24.5 -58z" />
    <glyph glyph-name="slash" unicode="/" horiz-adv-x="515" 
d="M468 651q0 -14 -5 -25l-291 -665q-15 -35 -51 -35q-24 0 -42 16t-18 40q0 14 5 25l291 665q15 35 51 35q24 0 42 -16t18 -40z" />
    <glyph glyph-name="zero" unicode="0" horiz-adv-x="515" 
d="M481 258q-27 -143 -95 -207q-57 -53 -130 -53q-19 0 -39 3q-106 19 -147 144q-21 62 -21 133q0 33 5 61q22 126 87 197.5t145 71.5q17 0 34 -3q117 -21 155 -142q14 -45 14 -112q0 -50 -8 -93zM368 283q15 74 3 125q-20 83 -88 83q-37 0 -68 -40t-48 -132q-10 -62 7 -123
q20 -70 71 -77q89 -12 123 164z" />
    <glyph glyph-name="one" unicode="1" horiz-adv-x="515" 
d="M400 31q0 -25 -16 -41.5t-41 -16.5h-59q-10 -3 -20 -3t-19 3h-56q-25 0 -41.5 16.5t-16.5 41.5t16.5 41t41.5 16h18v395q-7 -1 -13 -1q-24 0 -40.5 18t-16.5 42q0 29 26 46q88 57 118 57q41 0 41 -60v-497h21q25 0 41 -16t16 -41z" />
    <glyph glyph-name="two" unicode="2" horiz-adv-x="515" 
d="M507 95q0 -27 -22 -43q-39 -48 -106 -48h-235q-63 0 -63 36q0 45 89 142q56 67 163 188q22 30 22 65q0 26 -15 43q-13 7 -28 7q-54 0 -124 -83q-17 -21 -43 -21q-23 0 -41.5 17.5t-18.5 40.5q0 21 15 37q4 4 15 17q98 104 179 105q78 2 127.5 -40.5t49.5 -119.5
q0 -83 -52 -152l-145 -167h105q7 0 12 1q10 13 40 32q10 3 20 3q24 0 40 -18t16 -42z" />
    <glyph glyph-name="three" unicode="3" horiz-adv-x="515" 
d="M482 202q0 -87 -60 -155q-62 -71 -148 -71q-74 0 -147 55q-24 18 -24 45q0 23 17 41.5t40 18.5q18 0 35 -13q37 -29 79 -29q44 0 71 34q24 32 22 77q-4 69 -120 69q-18 0 -34 -2q-29 -3 -49.5 11.5t-20.5 42.5q0 41 49 59q113 41 113 80q0 42 -50 42q-66 0 -106 -29
q-16 -25 -49 -25q-25 0 -41 16t-16 41q0 53 86 86q67 26 126 26q69 0 117 -40q50 -43 50 -111q0 -59 -42 -109q102 -48 102 -160z" />
    <glyph glyph-name="four" unicode="4" horiz-adv-x="515" 
d="M499 172q0 -26 -17 -43t-39 -17q-10 0 -16 2l-25 9l-15 -97q-8 -49 -56 -49q-28 0 -45 19.5t-13 47.5l17 106q-155 34 -182 44q-53 19 -53 59q0 31 23.5 93t66.5 178q14 39 52 39q24 0 42 -16t18 -40q0 -10 -4 -21l-68 -189l123 -31l44 288q8 49 56 49q28 0 45 -19.5
t13 -47.5l-46 -299l35 -11q44 -13 44 -54z" />
    <glyph glyph-name="five" unicode="5" horiz-adv-x="515" 
d="M457 121q-26 -58 -86.5 -92.5t-126.5 -34.5q-53 0 -105 20q-38 15 -38 51q0 25 16.5 42.5t42.5 17.5q9 0 19 -3q41 -13 70 -13q48 0 78 28t30 70q0 43 -35 67q-31 20 -76 20q-23 0 -49 -5q-9 -33 -48 -33q-56 0 -56 74q0 16 -1.5 47.5t-1.5 47.5q0 46 24.5 91.5
t56.5 61.5q42 22 197 42q28 4 49 -12t21 -44q0 -42 -47 -48q-147 -19 -161 -24.5t-22.5 -33t-8.5 -56.5v-11q23 3 45 3q129 0 194 -90q35 -49 35 -106q0 -39 -16 -77z" />
    <glyph glyph-name="six" unicode="6" horiz-adv-x="515" 
d="M426 26q-54 -45 -131 -45q-100 0 -167.5 68t-67.5 169q0 30 7 65q20 101 77 198q54 96 123 152q18 15 37 15q24 0 41 -18t17 -42q0 -26 -21 -43q-36 -29 -77 -88t-63 -112q47 21 100 21q85 0 138 -47q56 -50 56 -132q0 -105 -69 -161zM379 173q8 80 -78 80q-26 0 -55 -10
q-33 -12 -46 -29.5t-18 -38.5q12 -36 43.5 -58t68.5 -22q36 0 59 21t26 57z" />
    <glyph glyph-name="seven" unicode="7" horiz-adv-x="515" 
d="M498 572q0 -16 -9 -36l-2 -6l-7 -18q-9 -21 -228 -543q-15 -36 -51 -36q-25 0 -42.5 16t-17.5 40q0 12 5 24l191 456q-93 -25 -243 -21q-25 1 -40.5 16.5t-15.5 40.5q0 26 16.5 42.5t42.5 15.5q152 -4 321 50q9 3 46 0q34 -8 34 -41z" />
    <glyph glyph-name="eight" unicode="8" horiz-adv-x="515" 
d="M479 498q1 -100 -92 -175q91 -64 88 -147q-4 -92 -82.5 -161.5t-171.5 -69.5q-67 0 -108 44q-38 40 -47 109q-2 15 -2 27q0 71 52 132q18 21 70 59q-76 55 -83 130q-8 83 70 141q70 52 156 52q68 0 108.5 -37t41.5 -104zM365 496q0 29 -43 29q-32 0 -64 -17
q-38 -20 -38 -49q0 -30 64 -71q82 65 81 108zM360 174q0 33 -73 79q-51 -34 -72 -57q-36 -38 -36 -81q0 -55 47 -55q45 0 97 48q37 34 37 66z" />
    <glyph glyph-name="nine" unicode="9" horiz-adv-x="515" 
d="M296 -40q-20 -32 -54 -28q-24 3 -39.5 21.5t-12.5 42.5q2 13 8 24q74 127 113 226q-53 -23 -98 -23q-118 0 -150 128q-9 35 -9 68q0 70 39 132q54 83 150 83q19 0 39 -3q186 -28 186 -206q0 -183 -172 -465zM354 402q6 50 -10 84q-19 39 -67 45q-43 5 -80.5 -20.5
t-43.5 -67.5q-4 -38 21 -77q19 -29 54 -33q34 -4 75.5 16.5t50.5 52.5z" />
    <glyph glyph-name="colon" unicode=":" horiz-adv-x="328" 
d="M248 394q0 -36 -25 -60t-61 -24q-37 0 -62.5 24t-25.5 60q0 35 25.5 59t62.5 24q36 0 61 -24t25 -59zM250 74q0 -33 -23.5 -57t-58.5 -24t-60 24t-25 57q0 35 25 58.5t60 23.5t58.5 -23.5t23.5 -58.5z" />
    <glyph glyph-name="semicolon" unicode=";" horiz-adv-x="328" 
d="M270 385q0 -34 -25.5 -57.5t-60.5 -23.5q-36 0 -61 23.5t-25 57.5q0 33 25 57t61 24q35 0 60.5 -24t25.5 -57zM274 79q0 -20 -4 -35q-24 -73 -71 -98q-24 -13 -46 -13q-33 0 -33 21q0 15 28 30q4 2 12 18q-57 19 -57 77q0 33 25 56.5t61 23.5q35 0 60 -23.5t25 -56.5z
" />
    <glyph glyph-name="less" unicode="&#x3c;" horiz-adv-x="470" 
d="M399 120q0 -23 -17 -41.5t-40 -18.5q-18 0 -35 12q-57 40 -171 121q-58 41 -58 69t51 68.5t153 120.5q18 14 36 14q24 0 41 -18t17 -42q0 -27 -22 -44l-120 -95l141 -100q24 -17 24 -46z" />
    <glyph glyph-name="equal" unicode="=" horiz-adv-x="532" 
d="M441 319q0 -25 -16 -41t-41 -16h-224q-25 0 -41.5 16t-16.5 41t16.5 41.5t41.5 16.5h224q25 0 41 -16.5t16 -41.5zM443 139q0 -26 -16 -42t-42 -16h-226q-26 0 -41.5 16t-15.5 42q0 25 16 41t41 16h226q26 0 42 -15.5t16 -41.5z" />
    <glyph glyph-name="greater" unicode="&#x3e;" horiz-adv-x="470" 
d="M402 262q0 -28 -58 -68.5t-172 -121.5q-17 -12 -34 -12q-24 0 -40.5 18.5t-16.5 41.5q0 29 24 46l141 100l-120 95q-22 17 -22 44q0 24 17 42t41 18q18 0 36 -14l153 -120q51 -41 51 -69z" />
    <glyph glyph-name="question" unicode="?" 
d="M434 468q0 -53 -54 -108q-34 -34 -110 -86q-28 -19 -38 -29q-2 -5 2 -17q17 -10 55 -14q51 -5 51 -51q0 -26 -19.5 -41t-46.5 -15q-41 0 -94 32q-65 39 -65 105q0 42 32 78q11 13 96 73q73 52 75 70q1 10 -23 35q-8 8 -22 8q-26 0 -65 -26.5t-54 -50.5q-17 -28 -47 -28
q-24 0 -42 16.5t-18 40.5q0 16 9 31q32 53 95.5 92t123.5 39t102 -42q57 -58 57 -112zM307 -13q0 -31 -22.5 -53.5t-53.5 -22.5t-53.5 22.5t-22.5 53.5q0 32 22 54t54 22t54 -22t22 -54z" />
    <glyph glyph-name="at" unicode="@" horiz-adv-x="766" 
d="M714 363q0 -82 -36 -136q-41 -63 -119 -62q-2 0 -30 -1h-16q-8 2 -22 7q-39 -30 -47 -35q-26 -15 -57 -15q-128 0 -128 151q0 77 46 138q50 66 125 66q119 0 119 -133q0 -36 -8 -86q2 -9 14 -9q9 0 23 5q45 35 45 110q0 82 -64 135q-62 49 -145 45q-127 -7 -196 -114
q-48 -75 -48 -148q0 -99 65 -165.5t164 -66.5q54 0 119 25q29 12 88 36q13 5 26 5q42 0 42 -41q0 -39 -54 -67q-24 -11 -88 -30q-79 -23 -137 -23q-132 0 -229.5 93.5t-97.5 225.5q0 137 94 247q99 116 233 116q133 0 222 -69q97 -75 97 -204zM465 334q0 61 -36 61
q-35 0 -59 -46q-21 -40 -21 -78q0 -27 9 -47q12 -26 36 -24q52 5 67 89q4 23 4 45z" />
    <glyph glyph-name="A" unicode="A" horiz-adv-x="563" 
d="M549 195q0 -47 -43 -56q7 -48 10 -109q1 -26 -15 -43.5t-42 -17.5q-54 0 -57 54.5t-12 113.5l-160 -1q-26 0 -42 15.5t-16 41.5q0 25 16.5 41t41.5 16l136 2q-43 160 -115 248q-36 -65 -69 -230q-26 -131 -33 -216q-4 -53 -56 -53q-28 0 -44 18t-14 45q11 131 40 262
q41 183 96 261q-4 26 13.5 47.5t43.5 21.5q18 0 32 -9q153 -96 224 -395h8q26 0 41.5 -15.5t15.5 -41.5z" />
    <glyph glyph-name="B" unicode="B" horiz-adv-x="516" 
d="M498 504q0 -103 -113 -180q94 -53 94 -154q0 -99 -123 -152q-94 -40 -207 -37q-56 2 -56 57q0 11 5 22v406q-24 0 -41 18t-17 42q0 29 25 46q104 73 220 73q84 0 140 -29q73 -36 73 -112zM382 497q0 33 -97 33q-38 0 -72 -11v-140q47 7 102 39q67 39 67 79zM364 170
q0 42 -54 63q-39 15 -88 15h-9v-148q151 22 151 70z" />
    <glyph glyph-name="C" unicode="C" 
d="M470 514q0 -23 -18.5 -39.5t-41.5 -16.5q-33 0 -49 32q-11 22 -21 32q-92 -15 -144 -95q-46 -72 -46 -170q0 -54 18 -101q24 -65 69 -61q65 6 116 89q17 28 47 28q24 0 42 -16.5t18 -40.5q0 -16 -9 -31q-89 -145 -209 -145q-102 0 -159 97q-47 80 -48 190q-2 188 125 294
q96 80 180 80q74 0 123 -98q7 -14 7 -28z" />
    <glyph glyph-name="D" unicode="D" horiz-adv-x="562" 
d="M532 297q0 -112 -63 -193t-172 -112q-43 -12 -122 -21q-37 -4 -55 24q-15 16 -15 41v426q-9 -2 -17 -2q-24 0 -40 18t-16 42q0 33 31 49q94 49 181 49q128 0 210 -98q78 -93 78 -223zM418 307q0 81 -49 137.5t-129 56.5q-10 0 -20 -1v-407q95 15 140 64q58 63 58 150z
" />
    <glyph glyph-name="E" unicode="E" 
d="M476 576q0 -54 -56 -57q-60 -3 -222 -36v-119q120 28 143 42q14 8 30 8q24 0 40.5 -18t16.5 -42q0 -31 -29 -48q-41 -25 -201 -60v-138q23 -4 47 -4q80 0 133 47q18 16 38 16q23 0 40.5 -18.5t17.5 -41.5q0 -24 -20 -42q-86 -76 -208 -76q-68 0 -129 24q-37 15 -37 51
q0 9 3 17v148q-49 7 -49 57q0 51 49 57v111q-25 0 -41 17.5t-16 42.5q0 46 89 71q1 0 125.5 23t175.5 25q27 1 43.5 -14.5t16.5 -42.5z" />
    <glyph glyph-name="F" unicode="F" horiz-adv-x="453" 
d="M430 380q0 -31 -29 -48q-34 -20 -173 -58v-264q0 -25 -16.5 -41.5t-41.5 -16.5t-41 16.5t-16 41.5v238q-15 -2 -22 -1q-55 3 -55 57q0 26 17.5 42.5t43.5 14.5q3 0 14 2q-6 43 -22 79q-27 -4 -46 14.5t-19 45.5q0 37 35 51l22 9q7 5 19 9q196 93 266 93q24 0 40 -17.5
t16 -41.5q0 -47 -48 -56q-60 -11 -179 -62q20 -45 28 -95q98 27 120 40q14 8 30 8q24 0 40.5 -18t16.5 -42z" />
    <glyph glyph-name="G" unicode="G" horiz-adv-x="547" 
d="M526 310q0 -34 -30 -49v-143q0 -55 -88 -104q-79 -45 -139 -45q-88 0 -148 75q-90 113 -90 253q0 141 88 240q93 105 233 111q91 4 117 -45q13 -24 13 -43q0 -30 -32 -46q-15 -8 -30 -8q-32 0 -54 29q-46 0 -100.5 -30t-79.5 -68q-38 -57 -38 -135q0 -67 30 -135
q37 -86 95 -86q46 0 108 59v91l-73 -19q-8 -2 -16 -2q-25 0 -40.5 17.5t-15.5 42.5q0 43 44 54l174 44q8 2 16 2q25 0 40.5 -17.5t15.5 -42.5z" />
    <glyph glyph-name="H" unicode="H" horiz-adv-x="563" 
d="M525 282q0 -56 -56 -58v-154q0 -30 -22 -52.5t-52 -22.5q-41 0 -41 45v184h-136v-174q0 -30 -22 -52.5t-52 -22.5q-41 0 -41 45v204h-15q-26 0 -41.5 16t-15.5 42q0 25 16 41t41 16h15v199q0 30 22 52.5t52 22.5q41 0 41 -45v-229h136v219q0 30 22 52.5t52 22.5
q41 0 41 -45v-249q25 0 40.5 -16t15.5 -41z" />
    <glyph glyph-name="I" unicode="I" horiz-adv-x="422" 
d="M377 67q0 -64 -148 -97q-72 -16 -133 -16q-25 0 -41.5 16.5t-16.5 41.5t16.5 41.5t41.5 16.5h41v394l-17 -4q-8 -2 -17 -2q-24 0 -39.5 17.5t-15.5 41.5q0 43 43 54l196 51q8 2 16 2q25 0 40.5 -19t15.5 -44q0 -44 -43 -53l-64 -14v-400q19 6 24 12q18 20 41 20t41.5 -18
t18.5 -41z" />
    <glyph glyph-name="J" unicode="J" horiz-adv-x="485" 
d="M194 588l230 38q6 1 11 1q21 0 33.5 -14.5t12.5 -34.5q0 -43 -43 -51l-46 -8v-435q0 -79 -54 -142q-57 -66 -135 -66q-88 0 -147 94q-5 9 -19 34q-12 20 -12 40q0 23 14 42t37 19q35 0 62 -46q3 -6 14 -25q22 -37 63 -37q62 0 62 87v414l-69 -9q-6 -1 -11 -1
q-21 0 -33.5 14.5t-12.5 34.5q0 43 43 51z" />
    <glyph glyph-name="K" unicode="K" horiz-adv-x="563" 
d="M538 67q0 -23 -18 -41.5t-41 -18.5q-21 0 -39 16l-245 223q-14 -102 -44 -240q-10 -46 -55 -46q-24 0 -41.5 16t-17.5 40q0 5 2 14q24 109 38 200q-25 0 -40.5 17.5t-15.5 42.5q0 43 43 54q9 2 27 7q9 114 1 212q-2 27 14 45t44 18q52 0 56 -53q7 -85 3 -171
q62 37 175 166q18 20 42 20q23 0 41.5 -17.5t18.5 -40.5q0 -20 -16 -38q-114 -130 -181 -176l229 -207q20 -18 20 -42z" />
    <glyph glyph-name="L" unicode="L" horiz-adv-x="469" 
d="M457 58q0 -25 -16 -41t-41 -16h-304q-25 0 -41 16t-16 41q0 32 24 48q38 41 38 90v364q0 25 16 41t41 16t41.5 -16t16.5 -41v-364q0 -41 -15 -80h199q25 0 41 -16.5t16 -41.5z" />
    <glyph glyph-name="M" unicode="M" horiz-adv-x="703" 
d="M672 30q-2 -56 -57 -56q-26 0 -42 17t-15 43q4 160 -30 365l-123 -207q-42 -70 -71 -70q-25 0 -64 55q-10 15 -105 168l1 -305q0 -26 -15.5 -42t-41.5 -16q-25 0 -41 16.5t-16 41.5l-2 508q0 27 12 45q14 22 39 22q32 0 55 -37l175 -282q40 70 121 208q71 117 114 117
q27 0 42 -54q35 -126 52 -285q15 -140 12 -252z" />
    <glyph glyph-name="N" unicode="N" horiz-adv-x="594" 
d="M549 598q-8 -244 -94 -542q-15 -51 -54 -51q-36 0 -54 45q-68 167 -155 323l-9 -341q-1 -25 -16.5 -40.5t-40.5 -15.5q-26 0 -42 17t-15 43l14 532q2 64 50 64q29 0 53 -32q92 -125 198 -349q47 226 51 351q2 56 57 56q26 0 42 -17t15 -43z" />
    <glyph glyph-name="O" unicode="O" horiz-adv-x="546" 
d="M509 375q0 -154 -58 -277q-67 -143 -180 -143q-118 0 -175 115q-41 82 -41 180q0 130 53 246q75 163 219 163q109 0 154 -113q28 -70 28 -171zM388 399q0 114 -45 123q-10 2 -21 2q-72 0 -111 -105q-29 -78 -29 -154q0 -169 60 -183q8 -2 15 -2q51 0 87 83q44 101 44 236
z" />
    <glyph glyph-name="P" unicode="P" 
d="M473 497q0 -59 -47 -120q-40 -53 -98 -88q-70 -43 -147 -51v-218q0 -25 -16 -41.5t-41 -16.5t-41 16.5t-16 41.5l-1 229q-52 16 -52 57q0 23 14.5 40.5t37.5 19.5v178q0 25 16 41.5t41 15.5q64 32 142 32t135 -29q73 -37 73 -107zM354 493q0 32 -58 32t-115 -24v-146
q100 15 155 95q18 26 18 43z" />
    <glyph glyph-name="Q" unicode="Q" horiz-adv-x="547" 
d="M517 -101q-2 -28 -18.5 -45.5t-66.5 -9.5q-91 25 -144 111h-17q-118 0 -175 115q-42 81 -42 179q0 130 53 246q76 164 220 164q109 0 154 -113q28 -70 28 -171q0 -104 -28 -199q-33 -116 -97 -173q43 -56 95 -73q31 -6 38 -31zM403 359q0 147 -57 171l-29 3
q-79 0 -126 -113q-27 -83 -27 -162q0 -53 14 -115q24 -57 64 -69q-40 116 30 121q62 10 64 -87q44 62 53 113.5t14 137.5z" />
    <glyph glyph-name="R" unicode="R" horiz-adv-x="547" 
d="M512 67q0 -23 -18 -41.5t-41 -18.5q-21 0 -39 16l-195 178q-20 -6 -40 -11v-144q0 -30 -22 -52.5t-52 -22.5q-41 0 -41 45v163q-24 1 -39.5 17t-15.5 40q0 55 55 57v111q0 30 21.5 52.5t51.5 22.5q42 0 42 -45v-125q112 32 168 102q23 29 23 53q0 41 -53 62
q-40 16 -88 16q-70 0 -111 -29q-17 -12 -34 -12q-24 0 -40.5 18.5t-16.5 42.5q0 27 25 45q74 52 170 52q95 0 174 -49q90 -57 90 -147q0 -63 -49 -124q-40 -49 -103 -87l158 -143q20 -18 20 -42z" />
    <glyph glyph-name="S" unicode="S" horiz-adv-x="532" 
d="M494 530q0 -24 -16.5 -42t-40.5 -18q-15 0 -30 9q-60 35 -124 35q-32 0 -58 -10q-35 -15 -35 -42q0 -48 110 -93q185 -76 185 -216q0 -77 -59 -125q-54 -45 -133 -45q-36 0 -71 9q-54 14 -106 45q-61 37 -82 79q-10 20 -10 36q0 44 57 44q32 0 47 -16q71 -76 157 -76
q31 0 55 12q31 16 31 44q0 56 -115 103q-183 74 -183 198q0 77 70 126q62 43 143 43q90 0 179 -53q29 -17 29 -47z" />
    <glyph glyph-name="T" unicode="T" horiz-adv-x="515" 
d="M501 594q0 -41 -43 -53l-147 -41v-470q0 -25 -16.5 -41t-41.5 -16t-41 16t-16 41v438l-94 -25q-11 -3 -17 -3q-25 0 -40.5 17.5t-15.5 42.5q0 41 43 53l356 98q11 3 17 3q25 0 40.5 -17.5t15.5 -42.5z" />
    <glyph glyph-name="U" unicode="U" horiz-adv-x="516" 
d="M244 -18q-61 0 -110 46q-43 40 -66 103q-19 53 -19 125q0 86 26 186q21 82 52 142q16 32 49 32q26 0 43 -16.5t17 -40.5q0 -14 -7 -27q-65 -128 -65 -256q0 -57 16 -108q22 -72 67 -72q59 0 93 117q20 72 26 161t3 142q-1 26 15.5 43t43.5 17q69 0 67 -53
q-7 -162 -13 -213q-18 -145 -64 -224q-61 -104 -174 -104z" />
    <glyph glyph-name="V" unicode="V" horiz-adv-x="484" 
d="M506 553q0 -17 -10 -32q-51 -80 -129 -240q-72 -148 -116 -261q-9 -49 -62 -45q-22 2 -37.5 17.5t-15.5 37.5l-102 529q-2 7 -2 13q0 24 17.5 40t41.5 16q46 0 55 -47l69 -353q106 233 185 355q18 27 46 27q24 0 42 -16.5t18 -40.5z" />
    <glyph glyph-name="W" unicode="W" horiz-adv-x="781" 
d="M743 559q-33 -387 -76 -524q-16 -50 -44 -50q-43 0 -111 111q-37 63 -112 189q-42 -196 -130 -300q-25 -29 -52 -29q-24 0 -38 22q-11 18 -11 44q0 94 -37 258q-38 170 -83 241q-9 14 -9 32q0 24 18 40.5t42 16.5q30 0 47 -27q71 -111 116 -368q32 100 48 237q7 61 52 61
q31 0 54 -37l169 -273q26 151 43 366q4 53 56 53q28 0 44 -18t14 -45z" />
    <glyph glyph-name="X" unicode="X" horiz-adv-x="593" 
d="M556 26q0 -24 -17.5 -40t-41.5 -16q-30 0 -96 112q-40 72 -81 145q-104 -143 -180 -234q-18 -21 -43 -21q-23 0 -41.5 17.5t-18.5 40.5q0 19 15 37q84 100 198 259q-118 158 -169 188q-29 17 -29 48q0 24 16.5 42t40.5 18q16 0 30 -8q61 -35 180 -189q74 111 119 189
q17 30 48 30q24 0 42 -16.5t18 -40.5q0 -15 -8 -29q-53 -95 -147 -231q165 -235 165 -301z" />
    <glyph glyph-name="Y" unicode="Y" horiz-adv-x="531" 
d="M492 576q0 -14 -7 -28q-39 -78 -174 -247l-1 -267q0 -25 -16 -41t-41 -16t-41 16t-16 41v263q-50 33 -72 55q-68 70 -94 192q-2 9 -2 14q0 24 17.5 40t41.5 16q45 0 55 -46q14 -69 38 -105q19 -28 65 -60q108 139 138 197q16 32 49 32q24 0 42 -16t18 -40z" />
    <glyph glyph-name="Z" unicode="Z" horiz-adv-x="594" 
d="M579 539q6 -21 -2.5 -41t-28.5 -28q-271 -186 -347 -339q21 -2 70 -14q45 -12 71 -12q83 14 121 40q16 11 33 11q24 0 41 -18t17 -42q0 -28 -26 -46q-114 -63 -182 -63q-31 0 -77 13q-64 18 -89 18q-21 0 -43 -6q-11 -6 -28 -6q-25 0 -42.5 19.5t-14.5 44.5q2 17 10 28
l38 86q24 48 47 81q70 98 208 206q-162 12 -225 52q-28 18 -28 47q0 24 17 42t41 18q16 0 32 -10q57 -37 323 -40q21 4 39.5 -8t24.5 -33z" />
    <glyph glyph-name="bracketleft" unicode="[" horiz-adv-x="396" 
d="M325 632q0 -40 -42 -53l-79 -24v-510l67 -30q35 -16 35 -51q0 -24 -16 -42t-40 -18q-13 0 -25 6q-26 10 -77 31q-59 28 -59 66v592q0 42 72 68l90 22q12 3 19 3q24 0 39.5 -18t15.5 -42z" />
    <glyph glyph-name="backslash" unicode="\" horiz-adv-x="478" 
d="M446 -14q0 -24 -17.5 -40t-42.5 -16q-35 0 -51 35l-291 658q-5 11 -5 25q0 24 18 40t42 16q36 0 51 -35l291 -658q5 -12 5 -25z" />
    <glyph glyph-name="bracketright" unicode="]" horiz-adv-x="396" 
d="M289 7q0 -38 -59 -66q-26 -10 -77 -31q-15 -6 -25 -6q-24 0 -40 18t-16 42q0 35 35 51l67 30v510l-80 24q-41 12 -41 53q0 24 15.5 42t39.5 18q6 0 18 -3l90 -22q73 -26 73 -68v-592z" />
    <glyph glyph-name="asciicircum" unicode="^" horiz-adv-x="437" 
d="M388 555q0 -24 -18.5 -41t-42.5 -17q-27 0 -44 25l-62 90l-70 -92q-17 -23 -43 -23q-24 0 -42 17.5t-18 41.5q0 19 13 35q68 86 97 114q38 37 66 37t64 -39q26 -29 88 -114q12 -17 12 -34z" />
    <glyph glyph-name="underscore" unicode="_" horiz-adv-x="750" 
d="M705 -62q0 -26 -16 -42t-42 -16h-515q-26 0 -41.5 16t-15.5 42q0 25 16 41t41 16h515q25 0 41.5 -16t16.5 -41z" />
    <glyph glyph-name="grave" unicode="`" horiz-adv-x="267" 
d="M250 500q0 -20 -31 -18q-67 6 -138 58q-56 41 -56 70q0 21 16.5 37t36.5 16q49 0 112 -64q60 -61 60 -99z" />
    <glyph glyph-name="a" unicode="a" horiz-adv-x="531" 
d="M497 36q0 -24 -18 -42t-42 -18q-27 0 -43 23q-9 14 -30 43q-55 -60 -134 -60q-80 0 -132 56.5t-52 137.5q0 114 83 208.5t196 94.5q30 0 48 -7q59 0 58 -58q-4 -241 8 -268q17 -40 45 -75q13 -16 13 -35zM320 164q-1 13 -3 118q-1 69 -1 82q-60 -6 -108.5 -66.5
t-48.5 -121.5q0 -73 79 -73q15 0 33 3q6 6 30 40q9 12 19 18z" />
    <glyph glyph-name="b" unicode="b" horiz-adv-x="547" 
d="M486 248q0 -106 -55 -171q-59 -69 -162 -69q-59 0 -102 25q-39 -44 -67 -44q-23 0 -38.5 13.5t-15.5 35.5q0 34 39 76v502q0 25 16 41t41 16t41.5 -16t16.5 -41v-192q68 53 139 53q147 0 147 -229zM371 248q0 39 -13 68q-17 39 -51 39q-46 0 -91 -67q-8 -12 -16 -21v-137
q35 -6 60 -6q111 0 111 124z" />
    <glyph glyph-name="c" unicode="c" horiz-adv-x="469" 
d="M413 370q0 -24 -18 -41.5t-42 -17.5q-25 0 -43 22q-25 31 -52 31q-45 0 -74 -69q-23 -55 -23 -107q0 -75 43 -91q16 -6 30 -6q30 0 52 29q18 24 44 24q23 0 41.5 -17.5t18.5 -40.5q0 -18 -13 -35q-60 -77 -140 -77q-85 0 -142 72q-53 68 -53 155q0 85 50 169
q64 108 160 108q45 0 99 -31q62 -35 62 -77z" />
    <glyph glyph-name="d" unicode="d" 
d="M476 42q0 -22 -16 -35.5t-38 -13.5q-31 0 -74 51q-60 -44 -135 -44q-87 0 -133 62q-42 55 -44 146q-3 109 62.5 177.5t173.5 68.5q26 0 50 -5v171q0 25 16.5 41.5t41.5 16.5t41 -16.5t16 -41.5v-502q39 -42 39 -76zM322 183v139q-10 4 -19 13q-39 14 -86 -6
q-32 -14 -50 -47.5t-18 -70.5q0 -36 15 -62q17 -33 50 -35q31 -2 63 18q23 15 27 23q8 17 18 28z" />
    <glyph glyph-name="e" unicode="e" horiz-adv-x="468" 
d="M438 380q0 -43 -23 -86q-25 -47 -81 -84.5t-113 -44.5q-29 -4 -43 4q18 -68 63 -68q40 0 95 49q17 15 38 15q19 0 35.5 -17t16.5 -40q0 -24 -20 -42q-81 -72 -158 -72q-84 0 -138 78q-48 70 -48 158q0 79 40 144q32 53 93 91t121 38q55 0 88.5 -34t33.5 -89zM339 371
q0 21 -32 21q-17 0 -29 -5q-89 -39 -102 -117q8 -6 27 -11q48 4 83 26q23 14 39 42q14 25 14 44z" />
    <glyph glyph-name="f" unicode="f" horiz-adv-x="402" 
d="M417 584q0 -24 -16.5 -42t-40.5 -18q-19 0 -35 12q-50 37 -75 37q-33 0 -33 -60v-98l58 23q13 5 23 5q24 0 40 -18.5t16 -42.5q0 -36 -37 -51l-100 -40v-286q0 -25 -16.5 -41t-41.5 -16t-41 16t-16 41v243q-25 -1 -42.5 17t-17.5 43q0 38 37 52l23 9v144q0 75 32 120
q37 52 108 52q73 0 151 -57q24 -18 24 -44z" />
    <glyph glyph-name="g" unicode="g" horiz-adv-x="515" 
d="M468 43q0 -17 -9 -73q-6 -37 -66 -82q-66 -50 -138 -50q-105 0 -179 113q-10 15 -10 32q0 24 18 41t42 17q30 0 47 -27q38 -58 91 -58q28 0 58 17q24 13 24 17q7 41 7 58v74q-53 -26 -105 -26q-46 0 -85 22q-112 64 -112 194q0 80 46 138q50 63 128 63q63 0 132 -44
q13 36 54 36q26 0 41.5 -15.5t15.5 -41.5v-405zM353 259l-4 81q-62 59 -109 59q-33 0 -51 -28q-17 -24 -17 -58q0 -39 20 -65q23 -30 60 -30q45 0 101 41z" />
    <glyph glyph-name="h" unicode="h" horiz-adv-x="547" 
d="M499 287q7 -149 -33 -269q-12 -38 -52 -38q-24 0 -41.5 16t-17.5 38q0 10 3 25q29 109 24 232q-2 73 -55 73q-49 0 -137 -171v-131q0 -26 -16 -41.5t-42 -15.5q-25 0 -41 16t-16 41v580q0 32 23.5 57t54.5 25q37 0 37 -42v-309q77 97 150 97q65 0 113 -61q44 -56 46 -122
z" />
    <glyph glyph-name="i" unicode="i" horiz-adv-x="281" 
d="M221 615q0 -28 -19.5 -47.5t-47.5 -19.5t-47.5 19.5t-19.5 47.5t19.5 47.5t47.5 19.5t47.5 -19.5t19.5 -47.5zM220 79q-1 -38 -36 -74q-29 -28 -57 -28q-32 0 -32 37v369q0 32 27 61.5t58 29.5q30 6 40 -26q3 -189 0 -369z" />
    <glyph glyph-name="j" unicode="j" horiz-adv-x="422" 
d="M368 552q0 -27 -19 -46t-46 -19t-46 19t-19 46t19 45.5t46 18.5t46 -19t19 -45zM362 -38q0 -65 -43 -120q-47 -59 -110 -59q-72 0 -128 83q-10 15 -10 33q0 24 18 41t42 17q18 0 40 -33q18 -26 41 -26q35 0 35 64v400q0 25 16.5 41t41.5 16q26 0 41.5 -16t15.5 -42v-399z
" />
    <glyph glyph-name="k" unicode="k" horiz-adv-x="516" 
d="M478 67q0 -23 -18 -41.5t-41 -18.5q-21 0 -39 16l-185 169v-160q0 -25 -16.5 -41.5t-41.5 -16.5t-41 16.5t-16 41.5v580q0 25 16 41t41 16t41.5 -16t16.5 -41v-265l3 -3q48 33 140 138q18 20 42 20t42 -17.5t18 -40.5q0 -20 -16 -38q-88 -101 -139 -141l173 -156
q20 -18 20 -42z" />
    <glyph glyph-name="l" unicode="l" horiz-adv-x="312" 
d="M272 -2q0 -22 -15 -36.5t-37 -14.5q-14 0 -27 6q-54 24 -60 28q-39 24 -39 54l1 575q0 25 16 41t41 16t41.5 -16t16.5 -41l-1 -538q63 -28 63 -74z" />
    <glyph glyph-name="m" unicode="m" horiz-adv-x="719" 
d="M652 56q0 -25 -16 -41.5t-42 -16.5q-25 0 -41 16.5t-16 41.5v276q0 42 -38 42q-29 0 -52 -44q-19 -37 -19 -70v-180q0 -25 -16 -41.5t-42 -16.5q-25 0 -41 16.5t-16 41.5v196q0 24 -22.5 47t-46.5 20q-16 -2 -31 -18.5t-15 -32.5v-240q0 -25 -16 -41.5t-42 -16.5
q-25 0 -41 16.5t-16 41.5v362q0 25 16 41t41 16q10 0 53 -34q35 22 57 22q68 0 125 -62q59 86 142 86q64 0 101 -45q34 -42 34 -110v-272z" />
    <glyph glyph-name="n" unicode="n" 
d="M440 46q0 -25 -16.5 -41.5t-41.5 -16.5t-41 16.5t-16 41.5v243q0 36 -37 36q-47 1 -75 -50q-23 -43 -23 -94l1 -129q0 -26 -16 -41.5t-42 -15.5t-42 15.5t-16 41.5v333q0 25 16 41t41 16q26 0 42 -15.5t16 -41.5v-13q62 68 136 68q59 0 89 -48q25 -41 25 -103v-243z" />
    <glyph glyph-name="o" unicode="o" horiz-adv-x="484" 
d="M447 267q0 -105 -53 -193q-61 -102 -160 -102q-18 0 -37 4q-72 15 -109 79q-33 56 -33 135q0 105 53 192q62 102 160 102q18 0 37 -4q72 -15 109 -79q33 -55 33 -134zM333 262q0 30 -12 62q-15 39 -40 44q-37 8 -71 -42q-27 -39 -36 -81q-5 -24 -5 -50q0 -30 12 -62
q15 -39 40 -44t55 22q38 34 52 101q5 24 5 50z" />
    <glyph glyph-name="p" unicode="p" 
d="M455 283q0 -113 -86 -179q-76 -58 -195 -68v-198q0 -25 -16.5 -41t-41.5 -16t-41 16t-16 41v604q0 25 15.5 41.5t40.5 16.5q45 1 56 -40q54 43 109 43q78 0 129 -73q46 -66 46 -147zM341 306q-1 28 -18 51t-44 23q-50 0 -105 -81v-147q172 17 167 154z" />
    <glyph glyph-name="q" unicode="q" horiz-adv-x="532" 
d="M150 203q18 -86 73 -86q49 0 100 75v136q-24 30 -76 47q-5 1 -13 1q-32 0 -57 -24q-33 -33 -33 -93q0 -26 6 -56zM457 -127q17 10 34 10q20 0 33.5 -14.5t13.5 -33.5q0 -26 -24 -41.5t-47 -31.5q-44 -29 -60 -29q-33 0 -50 30q-10 85 -16 138q-7 69 -15 140
q-54 -43 -109 -43q-73 0 -124 67q-35 46 -51 153q-3 21 -3 43q0 95 54.5 162t128.5 67q14 0 28 -3q36 -7 73 -40q0 25 16 41t42 16q25 0 41 -16t16 -41l-4 -312q0 -44 23 -262z" />
    <glyph glyph-name="r" unicode="r" horiz-adv-x="422" 
d="M401 379q0 -23 -16.5 -40t-39.5 -17q-35 0 -51 40q-50 -5 -75 -36q-10 -18 -19 -36v-262q0 -25 -16.5 -41t-41.5 -16t-41 16t-16 41v309q-33 14 -33 61q0 53 44 53q21 0 75 -30q68 55 120 55q49 0 89 -47q21 -25 21 -50z" />
    <glyph glyph-name="s" unicode="s" horiz-adv-x="421" 
d="M380 113q0 -72 -55 -115q-40 -31 -92 -31q-24 0 -51 7q-73 18 -133 85q-13 15 -13 37q0 46 45 52q37 5 74 -45q24 -33 68 -33t50 34q5 33 -49 73q-5 4 -82 51q-96 58 -96 129q0 63 52 103q48 37 113 37q63 0 123 -35q28 -16 28 -49q0 -49 -52 -49q-8 0 -46.5 15.5
t-66.5 15.5q-41 0 -41 -38q0 -36 80 -69q144 -58 144 -175z" />
    <glyph glyph-name="t" unicode="t" horiz-adv-x="391" 
d="M360 385q0 -38 -38 -52l-79 -30v-291q0 -25 -16.5 -41.5t-41.5 -16.5t-41 16.5t-16 41.5v247l-16 -6q-14 -5 -23 -5q-24 0 -39.5 18t-15.5 42q0 38 37 52l57 22v164q0 30 21.5 52.5t51.5 22.5q42 0 42 -45v-150l38 15q10 4 23 4q24 0 40 -18t16 -42z" />
    <glyph glyph-name="u" unicode="u" 
d="M474 45q0 -24 -17 -42t-41 -18q-37 0 -81 61q-64 -51 -134 -51q-110 0 -148 124q-9 29 -9 66q0 99 57 236q15 36 51 36q24 0 42 -16t18 -40q0 -12 -5 -24q-48 -116 -48 -192q0 -19 4 -32q14 -46 47 -46q38 0 82 53q-2 17 -2 36q0 74 43 219q12 41 53 41q25 0 42.5 -15.5
t17.5 -40.5q0 -9 -3 -19q-39 -127 -39 -179q0 -75 48 -113q22 -18 22 -44z" />
    <glyph glyph-name="v" unicode="v" horiz-adv-x="484" 
d="M442 404q0 -7 -3 -15q-75 -240 -153 -379q-23 -40 -56 -37q-34 2 -49 47q-63 185 -143 332q-9 16 -8 32q2 24 21 39.5t43 13.5q28 -2 44 -30q49 -90 104 -222q50 118 87 238q14 44 58 41q25 -2 41 -19t14 -41z" />
    <glyph glyph-name="w" unicode="w" horiz-adv-x="704" 
d="M681 360q0 -9 -3 -19q-41 -133 -54 -168q-34 -90 -84 -154q-21 -27 -42 -27q-45 0 -92 108q-13 29 -47 130l-69 -135q-68 -128 -114 -128q-25 0 -45 40q-81 166 -81 348q0 11 2 41q4 54 57 54q27 0 43 -17.5t14 -44.5q-1 -15 -1 -33q0 -90 28 -187l132 236q21 38 53 38
q39 0 53 -52q27 -104 70 -214q18 38 67 199q13 41 53 41q25 0 42.5 -15.5t17.5 -40.5z" />
    <glyph glyph-name="x" unicode="x" 
d="M485 4q0 -24 -18 -40t-42 -16q-32 0 -48 30q-38 69 -114 175q-77 -93 -119 -164q-17 -29 -47 -29q-24 0 -42 16.5t-18 40.5q0 15 9 30q53 91 146 200q-67 85 -117 134q-19 18 -19 40q0 24 17.5 42t41.5 18q22 0 40 -18q53 -52 115 -128q48 52 93 95q18 17 40 17
q24 0 41.5 -18t17.5 -42q0 -23 -19 -41q-53 -49 -102 -104q89 -121 136 -208q8 -15 8 -30z" />
    <glyph glyph-name="y" unicode="y" 
d="M463 444q0 -3 -2 -13q-29 -144 -104 -336q-58 -147 -119 -267q-16 -32 -49 -32q-24 0 -42 16t-18 40q0 14 7 28q48 93 95 209q-84 62 -120 111q-44 58 -68 156q-2 8 -2 16q0 25 17.5 40.5t42.5 15.5q43 0 54 -44q16 -67 40 -103.5t79 -79.5q54 146 75 252q9 47 55 47
q24 0 41.5 -16t17.5 -40z" />
    <glyph glyph-name="z" unicode="z" horiz-adv-x="484" 
d="M461 1q0 -24 -16 -42t-40 -18q-14 0 -28 7q-53 26 -143 45q-66 15 -134 18q-59 3 -59 49q0 18 11 37q51 87 197 263q-82 -13 -124 -28q-11 -4 -21 -4q-24 0 -40 18t-16 42q0 39 39 52q114 39 299 51q27 2 47.5 -10t20.5 -38q0 -24 -22 -48q-114 -124 -228 -279
q132 -19 225 -66q32 -16 32 -49z" />
    <glyph glyph-name="braceleft" unicode="{" horiz-adv-x="422" 
d="M359 682q0 -53 -52 -53h-16q-11 1 -16 1q-47 0 -47 -46q0 -29 47 -97.5t47 -90.5q0 -27 -67 -62t-67 -56q0 -7 65 -48.5t65 -69.5q0 -12 -26.5 -63t-26.5 -103q0 -33 44 -46t44 -50q0 -26 -17 -42.5t-42 -16.5q-56 0 -97.5 43.5t-41.5 99.5q0 111 29 164q-41 32 -82 65
q-47 43 -47 71q0 31 45 68q43 33 86 65q-63 80 -63 173q0 67 41 110.5t102 43.5q21 0 47 -5q46 -9 46 -55z" />
    <glyph glyph-name="bar" unicode="|" horiz-adv-x="222" 
d="M173 15q0 -33 -30.5 -65.5t-63.5 -32.5q-31 0 -31 37v679q0 33 26 62t59 29q36 7 40 -30q3 -346 0 -679z" />
    <glyph glyph-name="braceright" unicode="}" horiz-adv-x="422" 
d="M89 682q0 -53 52 -53h16q11 1 16 1q47 0 47 -46q0 -29 -47 -97.5t-47 -90.5q0 -27 67 -62t67 -56q0 -7 -65 -48.5t-65 -69.5q0 -12 26.5 -63t26.5 -103q0 -33 -44 -46t-44 -50q0 -26 17 -42.5t42 -16.5q56 0 97.5 43.5t41.5 99.5q0 111 -29 164q41 32 82 65q47 43 47 71
q0 31 -45 68q-43 33 -86 65q63 80 63 173q0 67 -41 110.5t-102 43.5q-21 0 -47 -5q-46 -9 -46 -55z" />
    <glyph glyph-name="asciitilde" unicode="~" horiz-adv-x="578" 
d="M551 565q0 -19 -13 -36q-68 -86 -140 -86q-37 0 -97.5 30.5t-75.5 30.5q-21 0 -74 -44q-17 -14 -38 -14q-23 0 -40.5 18t-17.5 41q0 25 21 43q86 73 154 73q35 0 87.5 -30t68.5 -30q30 0 61 39q18 23 44 23q24 0 42 -17t18 -41z" />
    <glyph glyph-name="DEL" 
 />
    <glyph glyph-name="Adieresis" unicode="&#xc4;" horiz-adv-x="640" 
d="M435 741q0 -23 -29 -45.5t-52 -22.5q-54 0 -54 62q0 28 26 47q23 17 51 17q58 0 58 -58zM213 744q0 -26 -22.5 -42.5t-49.5 -16.5q-69 0 -69 50q0 27 33 49q29 21 57 21q51 0 51 -61zM565 195q0 -47 -43 -56q7 -48 10 -109q1 -26 -15 -43.5t-42 -17.5q-54 0 -57 54.5
t-12 113.5l-160 -1q-26 0 -42 15.5t-16 41.5q0 25 16.5 41t41.5 16l136 2q-43 160 -115 248q-36 -65 -69 -230q-26 -131 -33 -216q-4 -53 -56 -53q-28 0 -44 18t-14 45q11 131 40 262q41 183 96 261q-4 26 13.5 47.5t43.5 21.5q18 0 32 -9q153 -96 224 -395h8
q26 0 41.5 -15.5t15.5 -41.5z" />
    <glyph glyph-name="Aring" unicode="&#xc5;" horiz-adv-x="640" 
d="M369 708q0 39 -26 65.5t-66 26.5q-47 0 -85 -38q-37 -37 -37 -84q0 -39 26 -66l6 -6q-2 -9 0 -19q-55 -78 -96 -261q-29 -131 -40 -262q-2 -27 14 -45t44 -18q52 0 56 53q7 85 33 216q33 165 69 230q72 -88 115 -248l-136 -2q-25 0 -42 -16q-16 -16 -16 -41q0 -26 16 -42
q16 -15 42 -15l160 1q9 -59 12 -114q3 -54 57 -54q26 0 42 18q16 17 15 43q-3 61 -10 109q43 9 43 56q0 26 -15.5 41.5t-41.5 15.5h-8q-60 253 -180 361q6 4 11 10q38 37 38 85zM306 707q-4 -39 -32 -51q-5 -2 -10 -3q-9 3 -20 3q-8 0 -15 -2q-11 8 -11 32q0 28 34 42
q13 5 28 5q29 0 26 -26z" />
    <glyph glyph-name="Ccedilla" unicode="&#xc7;" horiz-adv-x="531" 
d="M201 -7q-43 19 -76 62q-61 79 -62 211q-2 188 125 294q96 80 180 80q74 0 123 -98q7 -14 7 -28q0 -23 -18.5 -39.5t-41.5 -16.5q-33 0 -49 32q-11 22 -21 32q-92 -15 -144 -95q-46 -72 -46 -170q0 -54 18 -101q24 -65 69 -61q65 6 116 89q17 28 47 28q24 0 42 -16.5
t18 -40.5q0 -16 -9 -31q-89 -146 -209 -145q-3 1 -4 -6q111 -14 111 -90q0 -21 -10 -47q-12 -30 -31 -45q-39 -29 -99 -29q-25 0 -52.5 6t-27.5 31q0 33 32 33q5 0 16.5 -2t17.5 -2q89 0 85 47q-2 27 -69 27q-27 0 -42 12t-15 28q0 2 19 51z" />
    <glyph glyph-name="Eacute" unicode="&#xc9;" horiz-adv-x="578" 
d="M388 792q23 -23 23 -38q0 -19 -42 -45q-93 -57 -153 -57q-37 0 -37 16q0 38 65.5 88t107.5 50q21 0 36 -14zM508 576q0 -54 -56 -57q-60 -3 -222 -36v-119q120 28 143 42q14 8 30 8q24 0 40.5 -18t16.5 -42q0 -31 -29 -48q-41 -25 -201 -60v-138q23 -4 47 -4q80 0 133 47
q18 16 38 16q23 0 40.5 -18.5t17.5 -41.5q0 -24 -20 -42q-86 -76 -208 -76q-68 0 -129 24q-37 15 -37 51q0 9 3 17v148q-49 7 -49 57q0 51 49 57v111q-25 0 -41 17.5t-16 42.5q0 46 89 71q1 0 125.5 23t175.5 25q27 1 43.5 -14.5t16.5 -42.5z" />
    <glyph glyph-name="Ntilde" unicode="&#xd1;" horiz-adv-x="600" 
d="M549 598q-8 -244 -94 -542q-15 -51 -54 -51q-36 0 -54 45q-68 167 -155 323l-9 -341q-1 -25 -16.5 -40.5t-40.5 -15.5q-26 0 -42 17t-15 43l14 532q2 64 50 64q29 0 53 -32q92 -125 198 -349q47 226 51 351q2 56 57 56q26 0 42 -17t15 -43zM505 783q0 -15 -16 -30
q-77 -72 -124 -72q-23 0 -66 28t-57 28q-23 0 -49 -27t-37 -28q-18 -3 -38 10t-20 33q0 19 21 32l72 48q33 21 56 21q27 0 64 -28t46 -28q18 0 48 26.5t51 26.5q18 0 33.5 -11.5t15.5 -28.5z" />
    <glyph glyph-name="Odieresis" unicode="&#xd6;" horiz-adv-x="560" 
d="M511 758q0 -27 -30.5 -47.5t-58.5 -20.5q-56 0 -56 62q0 26 26 46.5t54 20.5q65 0 65 -61zM251 753q0 -26 -28 -46t-56 -20q-57 0 -57 62q0 26 27 46.5t54 20.5q28 0 44 -17.5t16 -45.5zM509 375q0 -154 -58 -277q-67 -143 -180 -143q-118 0 -175 115q-41 82 -41 180
q0 130 53 246q75 163 219 163q109 0 154 -113q28 -70 28 -171zM388 399q0 114 -45 123q-10 2 -21 2q-72 0 -111 -105q-29 -78 -29 -154q0 -169 60 -183q9 -2 15 -2q51 0 87 83q44 101 44 236z" />
    <glyph glyph-name="Udieresis" unicode="&#xdc;" horiz-adv-x="590" 
d="M544 708q0 -27 -26.5 -46t-53.5 -19q-57 0 -57 62q0 27 22 45.5t50 18.5q27 0 46 -17t19 -44zM305 721q0 -26 -26.5 -41.5t-54.5 -15.5q-54 0 -54 62q0 27 25 44q22 15 51 15q27 0 43 -18.5t16 -45.5zM276 -18q-61 0 -110 46q-43 40 -66 103q-19 53 -19 125q0 86 26 186
q21 82 52 142q16 32 49 32q26 0 43 -16.5t17 -40.5q0 -14 -7 -27q-65 -128 -65 -256q0 -57 16 -108q22 -72 67 -72q59 0 93 117q20 72 26 161t3 142q-1 26 15.5 43t43.5 17q69 0 67 -53q-7 -162 -13 -213q-18 -145 -64 -224q-61 -104 -174 -104z" />
    <glyph glyph-name="aacute" unicode="&#xe1;" horiz-adv-x="560" 
d="M530 36q0 -24 -18 -42t-42 -18q-27 0 -43 23q-9 14 -30 43q-55 -60 -134 -60q-80 0 -132 56.5t-52 137.5q0 114 83 208.5t196 94.5q30 0 48 -7q59 0 58 -58q-4 -241 8 -268q17 -40 45 -75q13 -16 13 -35zM353 164q-1 13 -3 118q-1 69 -1 82q-60 -6 -108.5 -66.5
t-48.5 -121.5q0 -73 79 -73q15 0 33 3q6 6 30 40q9 12 19 18zM419 702q19 -21 19 -38q0 -26 -52 -63q-77 -57 -135 -64q-40 -5 -40 18q0 43 64.5 103t108.5 60q21 0 35 -16z" />
    <glyph glyph-name="agrave" unicode="&#xe0;" horiz-adv-x="560" 
d="M519 36q0 -24 -18 -42t-42 -18q-27 0 -43 23q-9 14 -30 43q-55 -60 -134 -60q-80 0 -132 56.5t-52 137.5q0 114 83 208.5t196 94.5q30 0 48 -7q59 0 58 -58q-4 -241 8 -268q17 -40 45 -75q13 -16 13 -35zM342 164q-1 13 -3 118q-1 69 -1 82q-60 -6 -108.5 -66.5
t-48.5 -121.5q0 -73 79 -73q15 0 33 3q6 6 30 40q9 12 19 18zM384 557q0 -20 -31 -18q-67 6 -138 58q-56 41 -56 70q0 21 16.5 37t36.5 16q49 0 112 -64q60 -61 60 -99z" />
    <glyph glyph-name="acircumflex" unicode="&#xe2;" horiz-adv-x="560" 
d="M474 565q0 -19 -22 -30q-18 -10 -38 -10q-27 0 -44 17l-61 62l-69 -63q-18 -16 -43 -16q-20 0 -38 10q-21 11 -21 30q0 13 13 25q68 59 96 78q38 25 65 25q28 0 64 -26q19 -15 86 -79q12 -12 12 -23zM517 36q0 -24 -18 -42t-42 -18q-27 0 -43 23q-9 14 -30 43
q-55 -60 -134 -60q-80 0 -132 56.5t-52 137.5q0 114 83 208.5t196 94.5q30 0 48 -7q59 0 58 -58q-4 -241 8 -268q17 -40 45 -75q13 -16 13 -35zM340 164q-1 13 -3 118q-1 69 -1 82q-60 -6 -108.5 -66.5t-48.5 -121.5q0 -73 79 -73q15 0 33 3q6 6 30 40q9 12 19 18z" />
    <glyph glyph-name="adieresis" unicode="&#xe4;" horiz-adv-x="560" 
d="M473 617q0 -28 -23.5 -46t-50.5 -18q-60 0 -60 65q0 27 20.5 43.5t48.5 16.5q27 0 46 -17.5t19 -43.5zM263 613q0 -27 -27.5 -47t-55.5 -20q-58 0 -58 62q0 26 27 47t55 21q27 0 43 -18t16 -45zM463 -24q-27 0 -43 23q-9 14 -30 43q-55 -60 -134 -60q-80 0 -132 56.5
t-52 137.5q0 114 83 208.5t196 94.5q64 0 90 -22q16 -15 16 -43q-4 -241 8 -268q17 -40 45 -75q13 -16 13 -35q0 -24 -18.5 -42t-41.5 -18zM346 164q-1 13 -3 118q-1 69 -1 82q-60 -6 -108.5 -66.5t-48.5 -121.5q0 -73 78 -73q16 0 34 3q6 6 30 40q9 12 19 18z" />
    <glyph glyph-name="atilde" unicode="&#xe3;" horiz-adv-x="560" 
d="M508 36q0 -24 -18 -42t-42 -18q-27 0 -43 23q-9 14 -30 43q-55 -60 -134 -60q-80 0 -132 56.5t-52 137.5q0 114 83 208.5t196 94.5q30 0 48 -7q59 0 58 -58q-4 -241 8 -268q17 -40 45 -75q13 -16 13 -35zM331 164q-1 13 -3 118q-1 69 -1 82q-60 -6 -108.5 -66.5
t-48.5 -121.5q0 -73 79 -73q15 0 33 3q6 6 30 40q9 12 19 18zM498 646q0 -15 -16 -30q-77 -72 -124 -72q-23 0 -66 28t-58 28q-22 0 -48 -27t-37 -28q-19 -3 -37 10q-21 13 -21 33q0 18 21 32l72 48q33 21 55 21q28 0 65 -28t46 -28q18 0 48 26.5t51 26.5q18 0 33.5 -11.5
t15.5 -28.5z" />
    <glyph glyph-name="aring" unicode="&#xe5;" horiz-adv-x="560" 
d="M513 36q0 -24 -18 -42t-42 -18q-27 0 -43 23q-9 14 -30 43q-55 -60 -134 -60q-80 0 -132 56.5t-52 137.5q0 114 83 208.5t196 94.5q30 0 48 -7q59 0 58 -58q-4 -241 8 -268q17 -40 45 -75q13 -16 13 -35zM336 164q-1 13 -3 118q-1 69 -1 82q-60 -6 -108.5 -66.5
t-48.5 -121.5q0 -73 79 -73q15 0 33 3q6 6 30 40q9 12 19 18zM444 660q0 -55 -45 -96t-101 -41q-46 0 -77.5 29t-31.5 74q0 55 45.5 95.5t100.5 40.5q46 0 77.5 -28.5t31.5 -73.5zM370 659q4 29 -32 29q-18 0 -33 -6q-40 -15 -40 -47q0 -40 33 -40q14 0 33 7q33 13 39 57z
" />
    <glyph glyph-name="ccedilla" unicode="&#xe7;" 
d="M393 -117q0 -20 -12 -48q-12 -31 -29 -44q-40 -29 -99 -29q-25 0 -52.5 6t-27.5 31q0 33 32 33q5 0 16.5 -2t17.5 -2q89 0 85 47q-2 27 -69 27q-27 0 -42 12t-15 28q0 10 6 22q9 18 10 19q-44 16 -81 57q-59 65 -59 161q0 85 50 169q64 108 160 108q45 0 99 -31
q62 -35 62 -77q0 -24 -18 -41.5t-42 -17.5q-25 0 -43 22q-25 31 -52 31q-45 0 -74 -69q-23 -55 -23 -107q0 -75 43 -91q16 -6 30 -6q30 0 52 29q18 24 44 24q23 0 41.5 -17.5t18.5 -40.5q0 -18 -13 -35q-54 -70 -126 -76q0 1 -1 -2q111 -14 111 -90z" />
    <glyph glyph-name="eacute" unicode="&#xe9;" 
d="M460 380q0 -43 -23 -86q-25 -47 -81 -84.5t-113 -44.5q-29 -4 -43 4q18 -68 63 -68q40 0 95 49q17 15 38 15q19 0 35.5 -17t16.5 -40q0 -24 -20 -42q-81 -72 -158 -72q-84 0 -138 78q-48 70 -48 158q0 79 40 144q32 53 93 91t121 38q55 0 88.5 -34t33.5 -89zM361 371
q0 21 -32 21q-17 0 -29 -5q-89 -39 -102 -117q8 -6 27 -11q48 4 83 26q23 14 39 42q14 25 14 44zM401 711q19 -21 19 -38q0 -26 -52 -63q-77 -57 -135 -64q-40 -5 -40 18q0 43 64.5 103t108.5 60q21 0 35 -16z" />
    <glyph glyph-name="egrave" unicode="&#xe8;" 
d="M455 380q0 -43 -23 -86q-25 -47 -81 -84.5t-113 -44.5q-29 -4 -43 4q18 -68 63 -68q40 0 95 49q17 15 38 15q19 0 35.5 -17t16.5 -40q0 -24 -20 -42q-81 -72 -158 -72q-84 0 -138 78q-48 70 -48 158q0 79 40 144q32 53 93 91t121 38q55 0 88.5 -34t33.5 -89zM356 371
q0 21 -32 21q-17 0 -29 -5q-89 -39 -102 -117q8 -6 27 -11q48 4 83 26q23 14 39 42q14 25 14 44zM361 563q0 -20 -31 -18q-67 6 -138 58q-56 41 -56 70q0 21 16.5 37t36.5 16q49 0 112 -64q60 -61 60 -99z" />
    <glyph glyph-name="ecircumflex" unicode="&#xea;" 
d="M463 577q0 -18 -17.5 -28.5t-40.5 -10.5q-29 0 -45 16l-62 62l-68 -63q-17 -15 -44 -15q-23 0 -40.5 11t-17.5 28q0 13 13 25q56 50 74 63q53 40 86 40q29 0 64 -26q25 -19 87 -79q11 -11 11 -23zM431 380q0 -43 -23 -86q-24 -47 -80.5 -84.5t-113.5 -44.5q-29 -4 -43 4
q19 -68 63 -68q40 0 95 49q17 15 38 15q19 0 35.5 -17t16.5 -40q0 -24 -20 -42q-80 -72 -158 -72q-84 0 -138 78q-48 70 -48 158q0 79 40 144q33 53 92 90q63 39 122 39q55 0 88.5 -34t33.5 -89zM332 371q0 21 -32 21q-16 0 -29 -5q-88 -39 -102 -117q8 -6 27 -11
q49 4 83 26q23 14 39 42q14 25 14 44z" />
    <glyph glyph-name="edieresis" unicode="&#xeb;" 
d="M456 628q0 -26 -30.5 -47.5t-57.5 -21.5q-57 0 -57 62q0 27 26.5 47.5t54.5 20.5q26 0 45 -17t19 -44zM258 604q0 -27 -28 -47t-56 -20q-57 0 -57 62q0 27 27 47.5t55 20.5q26 0 42.5 -18.5t16.5 -44.5zM431 380q0 -43 -23 -86q-25 -47 -81.5 -84.5t-112.5 -44.5
q-30 -4 -43 4q18 -68 63 -68q39 0 95 49q16 15 38 15q19 0 35.5 -17t16.5 -40q0 -24 -20 -42q-81 -72 -158 -72q-85 0 -139 78q-47 70 -47 158q0 79 40 144q32 53 91 90q63 39 123 39q54 0 88 -34t34 -89zM332 371q0 21 -33 21q-16 0 -28 -5q-89 -39 -102 -117q8 -6 27 -11
q48 4 83 26q23 14 38 42q15 25 15 44z" />
    <glyph glyph-name="iacute" unicode="&#xed;" horiz-adv-x="328" 
d="M285 659q0 -32 -59 -75q-81 -59 -131 -59q-34 0 -34 22q0 43 64.5 103.5t108.5 60.5q19 0 35 -16.5t16 -35.5zM226 74q0 -32 -39 -69q-28 -28 -56 -28q-32 0 -32 37v369q0 32 26.5 61.5t58.5 29.5q42 0 42 -31q3 -189 0 -369z" />
    <glyph glyph-name="igrave" unicode="&#xec;" horiz-adv-x="328" 
d="M274 550q0 -21 -35 -21q-61 0 -140 58q-52 38 -52 70q0 20 19 41q14 16 35 16q45 0 109 -60t64 -104zM226 67q0 -25 -39 -62q-28 -28 -56 -28q-32 0 -32 37v369q0 32 26.5 61.5t58.5 29.5q41 0 42 -38q3 -189 0 -369z" />
    <glyph glyph-name="icircumflex" unicode="&#xee;" horiz-adv-x="328" 
d="M262 517q-21 0 -36 17l-60 66l-50 -72q-13 -18 -37 -18q-19 0 -36.5 12.5t-17.5 31.5q0 14 12 27q28 36 74 87q33 27 58 27t56 -28q24 -20 83 -83q8 -9 8 -20q0 -18 -18 -32.5t-36 -14.5zM218 68q-1 -29 -36 -63q-29 -28 -57 -28q-32 0 -32 37v369q0 32 27 61.5t58 29.5
q39 0 40 -37q3 -189 0 -369z" />
    <glyph glyph-name="idieresis" unicode="&#xef;" horiz-adv-x="328" 
d="M333 599q0 -27 -28 -50.5t-55 -23.5q-50 0 -50 71q0 27 23.5 45.5t50.5 18.5q59 0 59 -61zM149 602q0 -26 -28.5 -54.5t-51.5 -28.5q-50 0 -50 71q0 27 23 48.5t50 21.5q21 0 39 -18.5t18 -39.5zM221 68q-1 -26 -39 -63q-29 -28 -57 -28q-32 0 -32 37v369q0 32 27 61.5
t58 29.5q42 0 43 -37q3 -189 0 -369z" />
    <glyph glyph-name="ntilde" unicode="&#xf1;" horiz-adv-x="532" 
d="M482 633q0 -15 -16 -30q-80 -74 -122 -74q-24 0 -67.5 29t-57.5 29q-22 0 -48.5 -26.5t-36.5 -28.5q-19 -3 -38.5 10t-19.5 33q0 19 21 32q35 24 71 48q33 21 56 21q27 0 65 -29t47 -29q17 0 46.5 27.5t50.5 27.5q18 0 33.5 -11t15.5 -29zM465 46q0 -58 -58 -58
q-57 0 -57 58v243q0 36 -37 36q-48 1 -76 -50q-23 -43 -22 -94l1 -129q0 -26 -16.5 -41.5t-41.5 -15.5q-26 0 -42 15.5t-16 41.5v383q0 25 15.5 41t41.5 16q25 0 41.5 -15.5t16.5 -41.5v-63q62 68 136 68q58 0 88 -48q26 -41 26 -103v-243z" />
    <glyph glyph-name="oacute" unicode="&#xf3;" 
d="M458 267q0 -105 -53 -193q-61 -102 -160 -102q-18 0 -37 4q-72 15 -109 79q-33 56 -33 135q0 105 53 192q62 102 160 102q18 0 37 -4q72 -15 109 -79q33 -55 33 -134zM344 262q0 30 -12 62q-15 39 -40 44q-37 8 -71 -42q-27 -39 -36 -81q-5 -24 -5 -50q0 -30 12 -62
q15 -39 40 -44t55 22q38 34 52 101q5 24 5 50zM372 692q19 -21 19 -38q0 -26 -52 -63q-77 -57 -135 -64q-40 -5 -40 18q0 43 64.5 103t108.5 60q21 0 35 -16z" />
    <glyph glyph-name="ograve" unicode="&#xf2;" 
d="M458 267q0 -105 -53 -193q-61 -102 -160 -102q-18 0 -37 4q-72 15 -109 79q-33 56 -33 135q0 105 53 192q62 102 160 102q18 0 37 -4q72 -15 109 -79q33 -55 33 -134zM344 262q0 30 -12 62q-15 39 -40 44q-37 8 -71 -42q-27 -39 -36 -81q-5 -24 -5 -50q0 -30 12 -62
q15 -39 40 -44t55 22q38 34 52 101q5 24 5 50zM356 548q0 -20 -31 -18q-67 6 -138 58q-56 41 -56 70q0 21 16.5 37t36.5 16q49 0 112 -64q60 -61 60 -99z" />
    <glyph glyph-name="ocircumflex" unicode="&#xf4;" 
d="M373 513q-27 0 -44 17l-61 62l-69 -63q-18 -16 -43 -16q-19 0 -37 10q-22 12 -22 30q0 13 14 25q61 53 74 64q54 39 87 39t81 -40q4 -3 68 -65q12 -11 12 -23q0 -18 -20.5 -29t-39.5 -11zM448 267q0 -105 -53 -193q-62 -102 -160 -102q-19 0 -37 4q-73 15 -110 79
q-32 56 -32 135q0 105 53 192q61 102 160 102q18 0 37 -4q71 -15 109 -79q33 -56 33 -134zM334 262q0 30 -13 62q-15 39 -39 44q-37 8 -72 -42q-27 -39 -35 -81q-5 -24 -5 -50q0 -30 12 -62q15 -39 40 -44q24 -5 55 22q38 34 52 101q5 24 5 50z" />
    <glyph glyph-name="odieresis" unicode="&#xf6;" 
d="M445 591q0 -27 -30.5 -48t-58.5 -21q-56 0 -56 62q0 27 26.5 47.5t54.5 20.5q26 0 45 -17.5t19 -43.5zM246 588q0 -26 -28 -46t-55 -20q-58 0 -58 62q0 26 29 47q26 20 53 20q28 0 43.5 -18t15.5 -45zM448 267q0 -105 -53 -193q-62 -102 -160 -102q-19 0 -37 4
q-73 15 -110 79q-32 56 -32 135q0 105 53 192q61 102 160 102q18 0 37 -4q71 -15 109 -79q33 -55 33 -134zM334 262q0 30 -13 62q-15 39 -39 44q-37 8 -72 -42q-27 -39 -35 -81q-5 -24 -5 -50q0 -30 12 -62q15 -39 40 -44q24 -5 55 22q38 34 52 101q5 24 5 50z" />
    <glyph glyph-name="otilde" unicode="&#xf5;" 
d="M448 267q0 -105 -53 -193q-62 -102 -160 -102q-19 0 -37 4q-73 15 -110 79q-32 56 -32 135q0 105 53 192q61 102 160 102q18 0 37 -4q71 -15 109 -79q33 -55 33 -134zM334 262q0 30 -13 62q-15 39 -39 44q-37 8 -72 -42q-27 -39 -35 -81q-5 -24 -5 -50q0 -30 12 -62
q15 -39 40 -44q24 -5 55 22q38 34 52 101q5 24 5 50zM476 641q0 -15 -16 -30q-77 -72 -124 -72q-23 0 -66 28t-57 28q-23 0 -49 -26.5t-37 -28.5q-18 -3 -38 10t-20 33q0 19 21 32l72 48q33 21 56 21q27 0 64 -28t46 -28q18 0 48 26.5t51 26.5q18 0 33.5 -11.5t15.5 -28.5z
" />
    <glyph glyph-name="uacute" unicode="&#xfa;" horiz-adv-x="539" 
d="M502 45q0 -24 -17 -42t-41 -18q-37 0 -81 61q-64 -51 -134 -51q-110 0 -148 124q-9 29 -9 66q0 99 57 236q15 36 51 36q24 0 42 -16t18 -40q0 -12 -5 -24q-48 -116 -48 -192q0 -19 4 -32q14 -46 47 -46q38 0 82 53q-2 17 -2 36q0 74 43 219q12 41 53 41q25 0 42.5 -15.5
t17.5 -40.5q0 -9 -3 -19q-39 -127 -39 -179q0 -75 48 -113q22 -18 22 -44zM450 668q19 -21 19 -38q0 -26 -52 -63q-77 -57 -135 -64q-40 -5 -40 18q0 43 64.5 103t108.5 60q21 0 35 -16z" />
    <glyph glyph-name="ugrave" unicode="&#xf9;" horiz-adv-x="539" 
d="M496 45q0 -24 -17 -42t-41 -18q-37 0 -81 61q-64 -51 -134 -51q-110 0 -148 124q-9 29 -9 66q0 99 57 236q15 36 51 36q24 0 42 -16t18 -40q0 -12 -5 -24q-48 -116 -48 -192q0 -19 4 -32q14 -46 47 -46q38 0 82 53q-2 17 -2 36q0 74 43 219q12 41 53 41q25 0 42.5 -15.5
t17.5 -40.5q0 -9 -3 -19q-39 -127 -39 -179q0 -75 48 -113q22 -18 22 -44zM385 530q0 -20 -31 -18q-67 6 -138 58q-56 41 -56 70q0 21 16.5 37t36.5 16q49 0 112 -64q60 -61 60 -99z" />
    <glyph glyph-name="ucircumflex" unicode="&#xfb;" horiz-adv-x="539" 
d="M445 554q0 -18 -20.5 -29t-39.5 -11q-26 0 -44 18l-61 61l-69 -63q-18 -16 -43 -16q-20 0 -38 11q-21 12 -21 30q0 13 13 24q66 58 96 78q38 26 65 26q28 0 64 -27q25 -19 86 -78q12 -12 12 -24zM470 45q0 -24 -17.5 -42t-40.5 -18q-37 0 -81 61q-64 -51 -134 -51
q-110 0 -148 124q-9 29 -9 66q0 99 57 236q15 36 51 36q24 0 42 -16t18 -40q0 -12 -5 -24q-48 -116 -48 -192q0 -19 4 -32q14 -46 47 -46q38 0 82 53q-2 17 -2 36q0 74 43 219q12 41 53 41q24 0 42 -15.5t18 -40.5q0 -9 -3 -19q-39 -127 -39 -179q0 -75 48 -113
q22 -18 22 -44z" />
    <glyph glyph-name="udieresis" unicode="&#xfc;" horiz-adv-x="539" 
d="M458 596q0 -26 -30.5 -47t-58.5 -21q-56 0 -56 62q0 27 27 47t54 20q28 0 46 -17t18 -44zM260 593q0 -27 -27 -47t-55 -20q-58 0 -58 61q0 27 27 47.5t55 20.5q26 0 42 -17.5t16 -44.5zM453 45q0 -24 -17 -42t-41 -18q-37 0 -81 61q-64 -51 -134 -51q-110 0 -148 124
q-9 29 -9 66q0 99 57 236q15 36 51 36q24 0 42 -16t18 -40q0 -12 -5 -24q-48 -116 -48 -192q0 -19 4 -32q14 -46 47 -46q38 0 82 53q-2 17 -2 36q0 74 43 219q12 41 53 41q25 0 42.5 -15.5t17.5 -40.5q0 -9 -3 -19q-39 -127 -39 -179q0 -75 48 -113q22 -18 22 -44z" />
    <glyph glyph-name="dagger" unicode="&#x2020;" horiz-adv-x="422" 
d="M399 486q0 -25 -16.5 -41t-41.5 -16h-55v-207q0 -26 -16 -41.5t-42 -15.5q-25 0 -41 16t-16 41v207h-55q-25 0 -41 16t-16 41q0 26 15.5 42t41.5 16h55v63q0 25 16 41.5t41 16.5q26 0 42 -16t16 -42v-63h55q26 0 42 -16t16 -42z" />
    <glyph glyph-name="degree" unicode="&#xb0;" horiz-adv-x="359" 
d="M298 557q0 -47 -33 -79.5t-80 -32.5t-79.5 32.5t-32.5 79.5t32.5 80t79.5 33t80 -33t33 -80zM229 557q0 18 -13 31t-31 13t-30.5 -13t-12.5 -31t12.5 -30.5t30.5 -12.5t31 12.5t13 30.5z" />
    <glyph glyph-name="cent" unicode="&#xa2;" horiz-adv-x="516" 
d="M466 197q0 -17 -11 -31q-37 -48 -113 -69v-65q0 -25 -14.5 -41.5t-38.5 -16.5t-38 17t-14 41v58q-64 11 -112 60t-48 112q0 65 50 128q47 59 110 86v70q0 28 19.5 51t47.5 23q38 0 38 -44v-81q47 -5 78 -34q17 -16 17 -36t-15.5 -36t-35.5 -16q-19 0 -34 15q-5 4 -10 6
v-191q24 11 33 23q17 21 39 21q20 0 36 -15t16 -35zM237 193v165q-59 -49 -59 -98q0 -44 59 -67z" />
    <glyph glyph-name="sterling" unicode="&#xa3;" horiz-adv-x="641" 
d="M593 95q0 -45 -64 -98q-47 -38 -106 -38q-46 0 -105 24q-29 12 -101 48q-44 -62 -72 -62q-21 0 -36.5 15.5t-15.5 35.5q0 19 14 34q62 66 120 203l-46 -2q-24 -1 -38 14t-14 36q0 48 47 50l93 4q38 99 57 139q32 68 64 99q29 29 109 40q26 4 43 -13q14 -15 14 -37
q0 -43 -43 -49q-21 -1 -50 -9q-34 -32 -87 -164l87 4q25 1 39 -14t14 -36q0 -48 -48 -50l-133 -6q-19 -49 -63 -144q104 -56 149 -56q46 0 72 40v-1q5 43 50 43q20 0 35 -13t15 -37z" />
    <glyph glyph-name="section" unicode="&#xa7;" horiz-adv-x="546" 
d="M466 244q0 -82 -98 -131q73 -60 73 -130q0 -65 -56 -105q-51 -37 -118 -37q-34 0 -67 9q-42 12 -42 51q0 23 16.5 39.5t39.5 16.5q9 0 19 -2q18 -6 46 -6q47 0 47 30q0 32 -69 69q-159 86 -159 178q0 75 98 126q-61 46 -61 105q0 113 197 171q10 3 19 3q24 0 39.5 -18
t15.5 -42q0 -42 -41 -54q-95 -28 -115 -60q13 -19 80 -55q72 -38 98 -68q38 -44 38 -90zM350 248q-3 18 -51 44q-80 -25 -80 -58q0 -28 60 -66q77 34 71 80z" />
    <glyph glyph-name="bullet" unicode="&#x2022;" horiz-adv-x="561" 
d="M502 255q0 -85 -61.5 -144.5t-148.5 -59.5q-88 0 -149.5 59.5t-61.5 144.5t61.5 144.5t149.5 59.5q87 0 148.5 -59.5t61.5 -144.5z" />
    <glyph glyph-name="paragraph" unicode="&#xb6;" horiz-adv-x="625" 
d="M552 585q0 -55 -57 -57l-27 -1v-564q0 -25 -16.5 -41t-41.5 -16t-41 16t-16 41v564h-79q-32 0 -58 -25t-26 -55t22 -50.5t51 -22.5q20 -2 36 -19t16 -38v-270q0 -25 -16 -41t-41 -16q-26 0 -41.5 15.5t-15.5 41.5v222q-76 21 -114 80q-27 43 -27 95q0 88 64 144
q60 53 150 53l221 1q26 0 41.5 -15.5t15.5 -41.5z" />
    <glyph glyph-name="germandbls" unicode="&#xdf;" horiz-adv-x="630" 
d="M568 92q0 -100 -133 -127q-15 -3 -28 -3q-49 0 -94 34q-55 42 -55 81q0 24 18 40t42 16q31 0 48 -30q14 -25 45 -25q41 0 41 30q0 32 -68 64q-140 65 -140 157q0 62 68 127q23 22 23 39q0 30 -48 30q-38 0 -66.5 -23.5t-28.5 -61.5v-620q0 -25 -16.5 -41t-41.5 -16
t-41 16t-16 41v620q0 61 59 131q66 78 146 78q43 0 85 -26q81 -51 81 -127q0 -70 -56 -124q-32 -31 -32 -41q6 -16 72 -57q73 -44 98 -78q38 -52 38 -104z" />
    <glyph glyph-name="registered" unicode="&#xae;" horiz-adv-x="765" 
d="M690 104q0 -2 -2 -2t-2 2t2 2t2 -2zM742 296q0 -144 -101 -245t-245 -101t-244.5 101t-100.5 245t100.5 245t244.5 101t245 -101t101 -245zM637 296q0 100 -70.5 170.5t-170.5 70.5t-170 -70.5t-70 -170.5t70 -170t170 -70t170.5 70t70.5 170zM550 153q0 -18 -12.5 -31
t-30.5 -13q-16 0 -29 12l-108 97l-10 -3v-74q0 -21 -15.5 -37t-36.5 -16q-34 0 -34 36v83q-30 7 -30 42t30 42v60q0 21 15.5 36.5t36.5 15.5q34 0 34 -35v-63q30 10 55 28q34 23 34 46q0 18 -27 28q-20 7 -43 7q-27 0 -50 -11.5t-33 -11.5q-18 0 -30.5 13t-12.5 31
q0 32 48 51q37 14 74 14q59 0 107 -30q54 -35 54 -92q0 -66 -81 -121q26 -22 52 -43q43 -39 43 -61z" />
    <glyph glyph-name="copyright" unicode="&#xa9;" horiz-adv-x="812" 
d="M758 296q0 -144 -101 -245t-245 -101t-244.5 101t-100.5 245t100.5 245t244.5 101t245 -101t101 -245zM653 296q0 100 -70.5 170.5t-170.5 70.5t-170 -70.5t-70 -170.5t70 -170t170 -70t170.5 70t70.5 170zM536 424q0 -18 -13.5 -30.5t-31.5 -12.5t-27.5 12.5t-18.5 24.5
q-47 -10 -74 -54q-23 -39 -23 -91q0 -27 8 -52q11 -34 32 -32q26 2 50.5 35t46.5 33q18 0 31.5 -12.5t13.5 -30.5q0 -14 -6 -24q-56 -90 -132 -90q-64 0 -100 60q-32 51 -32 118q-1 116 78 181q59 49 113 49q49 0 80 -64q5 -10 5 -20z" />
    <glyph glyph-name="acute" unicode="&#xb4;" horiz-adv-x="328" 
d="M279 647q19 -21 19 -38q0 -26 -52 -63q-77 -57 -135 -64q-40 -5 -40 18q0 43 64.5 103t108.5 60q21 0 35 -16z" />
    <glyph glyph-name="dieresis" unicode="&#xa8;" horiz-adv-x="485" 
d="M425 695q0 -27 -29.5 -50t-57.5 -23q-27 0 -46.5 18.5t-19.5 45.5q0 26 30 49t58 23q27 0 46 -18.5t19 -44.5zM203 686q0 -27 -31 -50.5t-60 -23.5q-28 0 -47.5 19t-19.5 46t31 50.5t60 23.5q28 0 47.5 -19t19.5 -46z" />
    <glyph glyph-name="notequal" unicode="&#x2260;" horiz-adv-x="516" 
d="M477 318q0 -25 -16 -41t-41 -16h-94l-19 -65h109q26 0 42 -15.5t16 -41.5t-16 -42t-42 -16h-145l-22 -73q-13 -44 -52 -44q-21 0 -34 14t-13 35q0 8 4 21l14 47h-42q-26 0 -41.5 16t-15.5 42q0 25 16 41t41 16h77l20 65h-83q-25 0 -41.5 16t-16.5 41t16.5 41.5t41.5 16.5
h118l30 96q14 44 51 44q21 0 34 -14t13 -35q0 -11 -3 -21l-22 -70h59q25 0 41 -16.5t16 -41.5z" />
    <glyph glyph-name="AE" unicode="&#xc6;" horiz-adv-x="828" 
d="M779 105q0 -34 -32 -50q-100 -51 -241 -51q-19 0 -33 1q-43 3 -52 43q-5 12 -5 26v93l-217 -34q-24 -83 -30 -150q-4 -53 -57 -53q-26 0 -43 18t-15 44q14 170 113 374q93 192 193 280q18 16 38 16q27 0 46 -23q24 7 60 7q53 0 122 -15q77 -16 114 -40q27 -17 27 -47
q0 -24 -16.5 -42t-40.5 -18q-16 0 -32 10q-39 25 -147 36v-186q82 40 125 65q14 8 30 8q24 0 40.5 -18t16.5 -42q0 -31 -29 -48q-70 -41 -183 -91v-99q98 5 164 39q13 7 28 7q24 0 40 -18t16 -42zM416 284v253l-2 1q-94 -100 -171 -282z" />
    <glyph glyph-name="Oslash" unicode="&#xd8;" horiz-adv-x="560" 
d="M509 377q0 -156 -55 -283q-70 -139 -183 -139q-49 0 -87 20l-11 -23q-19 -39 -50 -39q-37 0 -37 41q0 14 8 31l23 50q-62 87 -62 215q0 130 53 246q75 163 219 163q41 0 73 -16l13 28q18 38 49 38q38 0 38 -40q0 -14 -8 -31l-27 -59q44 -76 44 -202zM343 522l-21 2
q-98 4 -140 -117.5t-6 -247.5zM401 448l-166 -363l29 -15q72 4 116 102.5t21 275.5z" />
    <glyph glyph-name="infinity" unicode="&#x221e;" horiz-adv-x="844" 
d="M789 258q-26 -72 -84 -121q-62 -55 -134 -55q-68 0 -122 53q-6 6 -36 46q-78 -88 -175 -88q-66 1 -103 44q-34 40 -34 107q0 77 42 143q48 76 121 76q77 0 155 -97q50 62 72 79q60 46 136 46q93 0 144 -62q33 -40 33 -93q0 -36 -15 -78zM689 327q0 42 -55 50
q-37 5 -72 -22.5t-77 -82.5q56 -77 82 -76q39 2 80.5 47t41.5 84zM355 268q-63 82 -100 88q-25 -3 -52 -58q-9 -42 -1 -66.5t32 -24.5q50 -4 121 61z" />
    <glyph glyph-name="plusminus" unicode="&#xb1;" horiz-adv-x="547" 
d="M492 368q0 -25 -16 -41t-41 -16h-95v-110q0 -29 -21.5 -51t-50.5 -22q-43 0 -43 47v136h-87q-25 0 -41.5 16t-16.5 41q0 26 16 42t42 16h87v98q0 29 21 50.5t50 21.5q44 0 44 -46v-124h95q26 0 41.5 -16t15.5 -42zM492 44q0 -26 -15.5 -42t-41.5 -16h-305q-26 0 -42 16
t-16 42q0 25 16.5 41t41.5 16h305q25 0 41 -16t16 -41z" />
    <glyph glyph-name="lessequal" unicode="&#x2264;" 
d="M423 197q0 -24 -17 -42t-41 -18q-18 0 -34 11l-172 121q-57 41 -57 69t51 68.5t153 120.5q18 14 36 14q23 0 40.5 -18.5t17.5 -41.5q0 -26 -23 -44l-119 -95l140 -100q25 -18 25 -45zM450 25q0 -25 -16 -41t-41 -16h-275q-25 0 -41.5 16t-16.5 41t16.5 41.5t41.5 16.5
h275q25 0 41 -16.5t16 -41.5z" />
    <glyph glyph-name="greaterequal" unicode="&#x2265;" 
d="M432 338q0 -28 -57 -69q-36 -26 -172 -121q-16 -11 -34 -11q-24 0 -41 18t-17 42q0 27 25 45l140 100l-119 95q-23 18 -23 44q0 23 17.5 41.5t40.5 18.5q18 0 36 -14l153 -120q51 -41 51 -69zM463 25q0 -25 -16 -41t-41 -16h-265q-25 0 -41.5 16t-16.5 41t16.5 41.5
t41.5 16.5h265q25 0 41 -16.5t16 -41.5z" />
    <glyph glyph-name="yen" unicode="&#xa5;" horiz-adv-x="547" 
d="M527 578q0 -14 -7 -28q-39 -78 -174 -247v-5l82 25q13 4 23 4q44 0 44 -40q0 -36 -46 -50l-103 -31l-1 -32l79 24q13 4 22 4q45 0 45 -40q0 -36 -46 -50l-100 -30v-96q0 -26 -16 -41.5t-42 -15.5q-25 0 -41 16t-16 41v60l-60 -18q-13 -4 -23 -4q-44 0 -44 40q0 36 45 50
l82 25v31l-56 -17q-13 -4 -23 -4q-44 0 -44 40q0 36 45 50l79 24v36q-52 33 -73 55q-34 36 -64 96q-31 65 -31 110q0 25 17 40.5t42 15.5q45 0 55 -46q13 -63 32 -95q22 -37 71 -70q108 137 137 197q16 32 50 32q23 0 41.5 -16.5t18.5 -39.5z" />
    <glyph glyph-name="mu" unicode="&#xb5;" horiz-adv-x="688" 
d="M645 407q0 -22 -4 -40q-23 -103 -93 -227q1 -11 -3 -26q-2 -8 2 -21t10 -18q49 -7 49 -56q0 -28 -18.5 -45t-46.5 -13q-49 7 -85 58q-52 -50 -102 -50q-54 0 -103 59q-35 -89 -71 -158q-16 -31 -49 -31q-24 0 -42 16t-18 40q0 14 7 28q65 127 125 335q8 51 44 181
q13 47 56 47q25 0 41 -16.5t16 -41.5q0 -42 -44 -199q-6 -41 -5 -56q7 -85 39 -85q40 0 107 130q58 112 71 174l1 2q-2 27 20.5 49t50.5 22q45 0 45 -58z" />
    <glyph glyph-name="mu" unicode="&#x3bc;" horiz-adv-x="688" 
d="M645 407q0 -22 -4 -40q-23 -103 -93 -227q1 -11 -3 -26q-2 -8 2 -21t10 -18q49 -7 49 -56q0 -28 -18.5 -45t-46.5 -13q-49 7 -85 58q-52 -50 -102 -50q-54 0 -103 59q-35 -89 -71 -158q-16 -31 -49 -31q-24 0 -42 16t-18 40q0 14 7 28q65 127 125 335q8 51 44 181
q13 47 56 47q25 0 41 -16.5t16 -41.5q0 -42 -44 -199q-6 -41 -5 -56q7 -85 39 -85q40 0 107 130q58 112 71 174l1 2q-2 27 20.5 49t50.5 22q45 0 45 -58z" />
    <glyph glyph-name="partialdiff" unicode="&#x2202;" horiz-adv-x="516" 
d="M448 317q0 -112 -56 -217q-67 -125 -169 -125q-80 0 -147 97q-40 58 -40 121q0 96 83 171q79 71 178 78l-1 3q-41 61 -125 85q-42 12 -42 53q0 24 15.5 42t39.5 18q7 0 18 -3q119 -33 182.5 -116.5t63.5 -206.5zM330 327q-15 3 -29 3q-60 0 -102 -41t-42 -101
q0 -31 14 -51q28 -40 58 -40q53 0 82 94q22 72 19 136z" />
    <glyph glyph-name="summation" unicode="&#x2211;" horiz-adv-x="625" 
d="M553 -10q0 -40 -52 -71q-39 -23 -57 -23h-323q-23 0 -40.5 17t-17.5 40q0 28 85 108q34 31 101 92l122 112l-249 223q-27 24 -27 51q0 24 21 38q18 11 44 11l321 1q25 0 41 -16t16 -41q0 -26 -15.5 -42t-41.5 -16h-171l154 -136q50 -45 50 -74q0 -27 -47 -70t-139 -126
l-62 -57h164l12 7q32 19 58 19q53 0 53 -47z" />
    <glyph glyph-name="product" unicode="&#x220f;" horiz-adv-x="635" 
d="M563 561q0 -26 -16 -42t-42 -16h-20v-468q0 -25 -16 -41t-41 -16q-26 0 -42 15.5t-16 41.5v468h-116v-515q0 -26 -15.5 -42t-41.5 -16t-42 16t-16 42v515h-19q-26 0 -42 16t-16 42q0 25 16.5 41t41.5 16h385q25 0 41.5 -16t16.5 -41z" />
    <glyph glyph-name="pi" unicode="&#x3c0;" horiz-adv-x="608" 
d="M560 453q0 -44 -47 -55l-26 -6l-2 -317q0 -30 -22 -52t-52 -22q-41 0 -41 44v325l-116 -23v-319q0 -26 -15.5 -42t-41.5 -16t-42 16t-16 42v297l-4 -1q-7 -1 -13 -1q-25 0 -40.5 17t-15.5 42q0 46 47 55l378 73q7 2 13 2q24 0 40 -17.5t16 -41.5z" />
    <glyph glyph-name="integral" unicode="&#x222b;" horiz-adv-x="547" 
d="M493 574q0 -51 -52 -56q-24 -3 -44 -15q-25 -15 -25 -37l-2 -410q0 -76 -42 -129q-46 -58 -120 -58q-67 0 -130 52q-22 18 -22 43q0 24 17.5 42t41.5 18q19 0 36 -14q35 -29 55 -29t35 29q14 25 14 47l2 409q0 69 53 116q50 44 120 50q27 2 45 -14.5t18 -43.5z" />
    <glyph glyph-name="ordfeminine" unicode="&#xaa;" 
d="M401 336q0 -17 -13.5 -30t-30.5 -13q-16 0 -28.5 16t-23.5 31q-39 -42 -96 -42q-58 0 -95.5 40.5t-37.5 98.5q0 81 60.5 149.5t140.5 68.5q22 0 35 -5q42 0 41 -42q-2 -174 6 -192q3 -10 24 -42q18 -28 18 -38zM419 189q0 -46 -46 -46h-244q-46 0 -46 46t46 46h244
q46 0 46 -46zM263 433q-2 34 -3 127q-35 -8 -63.5 -47.5t-28.5 -75.5q0 -42 46 -42q9 0 19 1q9 14 30 37z" />
    <glyph glyph-name="ordmasculine" unicode="&#xba;" horiz-adv-x="475" 
d="M392 480q0 -77 -52.5 -135.5t-128.5 -58.5q-13 0 -31 3q-120 21 -120 141q0 77 52 135t129 58q18 0 31 -2q57 -9 88.5 -46.5t31.5 -94.5zM398 185q0 -46 -45 -46h-244q-47 0 -47 46t47 46h244q45 0 45 -46zM296 477q0 23 -11 43q-13 24 -34 27q-29 5 -57 -25
q-24 -25 -33 -56q-5 -18 -5 -33q0 -23 11 -43q13 -24 34 -27q29 -5 57 25q24 25 33 56q5 18 5 33z" />
    <glyph glyph-name="ae" unicode="&#xe6;" horiz-adv-x="781" 
d="M723 373q0 -80 -68 -140q-57 -51 -143 -74q-23 -6 -42 4q16 -59 62 -59q38 0 83 40q18 16 38 16q23 0 41 -18.5t18 -41.5t-21 -42q-69 -61 -157 -72q-47 -6 -52 -6q-31 0 -57 20q-12 9 -37 43q-55 -60 -134 -60q-80 0 -132 56.5t-52 137.5q0 114 83 208.5t196 94.5
q3 0 23 1q15 1 23 0q12 -2 20 -9q22 -19 22 -51q31 34 79 55q44 19 85 19q54 0 88 -34t34 -88zM610 387q-3 1 -23 -3q-24 -5 -40 -12q-40 -17 -57 -38.5t-24 -57.5q12 -19 20 -18q29 4 84 38q45 28 45 62q0 13 -5 29zM344 165q-1 13 -3 118q-1 69 -1 82q-60 -6 -108.5 -66.5
t-48.5 -121.5q0 -35 23 -55.5t56 -20.5q17 0 33 6q10 4 49 58z" />
    <glyph glyph-name="oslash" unicode="&#xf8;" 
d="M463 504q0 -22 -14 -43l-37 -56q36 -56 42 -136q2 -113 -54 -201q-66 -96 -165 -96q-51 0 -92 27l-27 -42q-18 -26 -39 -26q-16 0 -25 13t-9 29q0 20 14 41l29 46q-30 55 -30 130q0 105 53 192q62 102 160 102q47 0 86 -23l39 58q17 26 37 26q32 0 32 -41zM293 371
q-56 16 -100 -35t-38 -180zM337 304l-130 -207q81 -32 119 47t11 160z" />
    <glyph glyph-name="questiondown" unicode="&#xbf;" horiz-adv-x="480" 
d="M334 476q0 -28 -21 -47t-52 -19q-30 0 -51.5 19.5t-21.5 46.5q0 28 21 47t52 19t52 -19t21 -47zM447 -25q0 -16 -10 -32q-33 -54 -94 -92q-64 -39 -125 -39t-102 42q-56 58 -56 113q0 53 53 107q33 33 111 86q28 19 37 29q2 5 -2 17q-16 10 -55 14q-51 5 -51 52
q0 27 19 41t47 14q40 0 94 -32q65 -39 65 -105q0 -43 -32 -78q-8 -9 -96 -72q-73 -52 -75 -71q-1 -10 23 -34q9 -9 22 -9q29 0 70 30q35 25 49 48q18 28 47 28q24 0 42.5 -16.5t18.5 -40.5z" />
    <glyph glyph-name="exclamdown" unicode="&#xa1;" horiz-adv-x="328" 
d="M232 484q0 -29 -20 -49t-49 -20t-49 20t-20 49t20 49t49 20q28 0 48.5 -20.5t20.5 -48.5zM228 296l-1 -372q0 -25 -15.5 -40t-40.5 -15q-26 0 -43.5 16.5t-17.5 42.5q-3 182 0 369q0 25 16.5 41t42.5 16t42.5 -16t16.5 -42z" />
    <glyph glyph-name="logicalnot" unicode="&#xac;" horiz-adv-x="532" 
d="M466 125q0 -25 -16.5 -41t-41.5 -16t-41 16t-16 41v118h-237q-25 0 -41 16t-16 41t16 41.5t41 16.5h294q23 0 40.5 -17.5t17.5 -40.5v-175z" />
    <glyph glyph-name="radical" unicode="&#x221a;" horiz-adv-x="766" 
d="M719 642q0 -10 -5 -23q-156 -393 -229 -666q-13 -47 -44 -47q-40 0 -112 74l-114 122l-59 -55q-18 -17 -39 -17q-23 0 -41 18t-18 41t19 41q75 71 90 83q33 27 55 27q26 0 66 -42q35 -36 113 -120q81 265 206 583q15 37 51 37q24 0 42.5 -16t18.5 -40z" />
    <glyph glyph-name="florin" unicode="&#x192;" horiz-adv-x="578" 
d="M558 576q0 -24 -16 -42t-40 -18q-8 0 -24 4t-24 4q-21 0 -40 -22q-13 -21 -27 -41l-2 -10l-7 -20h114q25 0 41.5 -16t16.5 -41q0 -26 -16 -42t-42 -16h-154l-161 -467q-13 -39 -53 -39q-24 0 -42 16t-18 40q0 9 4 21l148 429h-48q-26 0 -41.5 16t-15.5 42q0 25 16 41
t41 16h88l19 54q16 66 67.5 109t118.5 43q30 0 56 -8q41 -12 41 -53z" />
    <glyph glyph-name="Delta" unicode="&#x394;" horiz-adv-x="703" 
d="M641 52q0 -47 -62 -48q-200 -2 -448 -66q-12 -3 -24 -3q-51 0 -51 48q0 18 8 35q97 209 190 492q16 49 53 49q32 0 53 -40q123 -238 264 -423q17 -22 17 -44zM471 113q-76 112 -150 239q-53 -149 -106 -277q132 26 256 38z" />
    <glyph glyph-name="Delta" unicode="&#x2206;" horiz-adv-x="703" 
d="M641 52q0 -47 -62 -48q-200 -2 -448 -66q-12 -3 -24 -3q-51 0 -51 48q0 18 8 35q97 209 190 492q16 49 53 49q32 0 53 -40q123 -238 264 -423q17 -22 17 -44zM471 113q-76 112 -150 239q-53 -149 -106 -277q132 26 256 38z" />
    <glyph glyph-name="guillemotleft" unicode="&#xab;" horiz-adv-x="640" 
d="M581 402q0 -24 -20 -42l-101 -90l94 -72q23 -18 23 -45q0 -23 -17.5 -41t-40.5 -18q-18 0 -35 13q-44 33 -130 100q-43 34 -43 60q0 24 44 64q57 52 129 115q17 15 39 15q23 0 40.5 -18t17.5 -41zM359 438q0 -24 -18 -41l-135 -130l115 -106q27 -16 27 -50
q0 -25 -16 -41.5t-41 -16.5q-27 3 -47 22l-19 18q-35 32 -142 131q-17 16 -17 38q0 42 69 106q42 37 126 112q19 17 39 17q24 0 41.5 -17.5t17.5 -41.5z" />
    <glyph glyph-name="guillemotright" unicode="&#xbb;" horiz-adv-x="640" 
d="M579 262q0 -21 -18 -38l-161 -149q-20 -18 -46 -22q-25 0 -41.5 16.5t-16.5 41.5q1 34 28 50l115 106l-135 130q-19 18 -19 41t18 41t41 18q21 0 40 -17q42 -37 125 -112q70 -65 70 -106zM334 267q0 -26 -43 -60q-4 -3 -130 -100q-17 -13 -35 -13q-24 0 -41 17.5
t-17 41.5q0 27 23 45l93 72l-101 90q-20 18 -20 42q0 23 18 41t41 18q21 0 38 -15q44 -38 130 -115q44 -40 44 -64z" />
    <glyph glyph-name="nonbreakingspace" unicode="&#xa0;" horiz-adv-x="467" 
 />
    <glyph glyph-name="Agrave" unicode="&#xc0;" horiz-adv-x="641" 
d="M394 704q0 -17 -28 -17q-29 0 -83 18q-45 14 -64 25q-41 23 -41 45q0 18 18.5 32t36.5 14q45 0 105 -46q56 -44 56 -71zM596 195q0 -47 -43 -56q7 -48 10 -109q1 -26 -15 -43.5t-42 -17.5q-54 0 -57 54.5t-12 113.5l-160 -1q-26 0 -42 15.5t-16 41.5q0 25 16.5 41
t41.5 16l136 2q-43 160 -115 248q-36 -65 -69 -230q-26 -131 -33 -216q-4 -53 -56 -53q-28 0 -44 18t-14 45q11 131 40 262q41 183 96 261q-4 26 13.5 47.5t43.5 21.5q18 0 32 -9q153 -96 224 -395h8q26 0 41.5 -15.5t15.5 -41.5z" />
    <glyph glyph-name="Atilde" unicode="&#xc3;" horiz-adv-x="641" 
d="M597 195q0 -47 -43 -56q7 -48 10 -109q1 -26 -15 -43.5t-42 -17.5q-54 0 -57 54.5t-12 113.5l-160 -1q-26 0 -42 15.5t-16 41.5q0 25 16.5 41t41.5 16l136 2q-43 160 -115 248q-36 -65 -69 -230q-26 -131 -33 -216q-4 -53 -56 -53q-28 0 -44 18t-14 45q11 131 40 262
q41 183 96 261q-4 26 13.5 47.5t43.5 21.5q18 0 32 -9q153 -96 224 -395h8q26 0 41.5 -15.5t15.5 -41.5zM530 780q0 -15 -16 -30q-78 -72 -124 -72q-24 0 -67 28t-57 28q-22 0 -48.5 -27t-36.5 -28q-19 -3 -38.5 10t-19.5 33q0 19 21 32q35 24 71 48q34 21 56 21
q27 0 64.5 -28t46.5 -28q17 0 47 26.5t52 26.5q17 0 33 -11.5t16 -28.5z" />
    <glyph glyph-name="Otilde" unicode="&#xd5;" horiz-adv-x="560" 
d="M509 375q0 -154 -58 -277q-67 -143 -180 -143q-118 0 -175 115q-41 82 -41 180q0 130 53 246q75 163 219 163q109 0 154 -113q28 -70 28 -171zM388 399q0 114 -45 123q-11 2 -21 2q-72 0 -111 -105q-29 -78 -29 -154q0 -169 60 -183q8 -2 15 -2q51 0 87 83q44 101 44 236
zM575 785q0 -15 -16 -30q-77 -72 -124 -72q-23 0 -66 28t-58 28q-22 0 -48 -26.5t-37 -28.5q-19 -3 -37 10q-21 13 -21 33q0 19 21 32l72 48q33 21 55 21q28 0 65 -28t46 -28q18 0 48 26.5t51 26.5q18 0 33.5 -11.5t15.5 -28.5z" />
    <glyph glyph-name="OE" unicode="&#x152;" horiz-adv-x="812" 
d="M778 111q0 -25 -20 -43q-84 -77 -205 -77q-67 0 -127 25q-15 6 -24 17q-54 -55 -124 -55q-117 0 -175 110q-41 77 -41 170q0 123 53 233q75 155 220 155q60 0 101 -34q19 2 43 2q128 0 226 -27q46 -13 46 -57q0 -24 -15 -40.5t-39 -16.5q-5 0 -73 18q-46 12 -86 12
q-19 0 -37 -3q16 -56 16 -123q0 -8 -1 -17q110 28 128 39q15 9 30 9q24 0 40 -18.5t16 -42.5q0 -30 -29 -48q-44 -26 -198 -62l2 -125q23 -5 47 -5q79 0 131 48q18 16 37 16q23 0 40.5 -18.5t17.5 -41.5zM395 399q0 108 -44 117q-10 2 -21 2q-72 0 -112 -100
q-29 -73 -29 -146q0 -160 60 -173q9 -2 15 -2q50 0 87 79q44 95 44 223z" />
    <glyph glyph-name="oe" unicode="&#x153;" horiz-adv-x="766" 
d="M742 361q0 -103 -107 -168q-53 -32 -104 -46q-23 -6 -42 4q15 -59 62 -59q38 0 83 40q18 16 38 16q24 0 41 -18t17 -42t-20 -42q-80 -71 -158 -71q-100 0 -155 106q-63 -109 -163 -109q-18 0 -37 4q-72 15 -109 79q-33 56 -33 135q0 105 53 192q62 102 160 102
q18 0 37 -4q83 -18 119 -99q44 54 111 83q44 19 85 19q54 0 88 -34t34 -88zM625 356q0 9 -3 18q-6 0 -41 -15q-82 -35 -95 -107q6 4 15 6q40 11 75 33q49 31 49 65zM333 262q0 30 -12 62q-15 39 -40 44q-37 8 -71 -42q-27 -39 -36 -81q-5 -24 -5 -50q0 -30 12 -62
q15 -39 40 -44t55 22q38 34 52 101q5 24 5 50z" />
    <glyph glyph-name="endash" unicode="&#x2013;" horiz-adv-x="547" 
d="M488 342q0 -26 -15.5 -42t-41.5 -16h-305q-26 0 -42 16t-16 42t16 41.5t42 15.5h305q25 0 41 -16t16 -41z" />
    <glyph glyph-name="emdash" unicode="&#x2014;" horiz-adv-x="781" 
d="M715 342q0 -26 -15.5 -42t-41.5 -16h-535q-26 0 -42 16t-16 42t16 41.5t42 15.5h535q25 0 41 -16t16 -41z" />
    <glyph glyph-name="quotedblleft" unicode="&#x201c;" horiz-adv-x="484" 
d="M414 663q0 -5 -15.5 -38t-17.5 -43q-7 -31 5 -58q24 -16 24 -45q0 -28 -19.5 -48.5t-47.5 -20.5q-9 0 -20 3q-59 16 -59 93q0 47 35 97.5t79 62.5q15 4 25 4q11 0 11 -7zM242 714q0 -6 -14 -37q-16 -34 -18 -44q-8 -32 4 -57q24 -16 24 -46q0 -28 -19.5 -48.5
t-47.5 -20.5q-9 0 -19 3q-59 17 -59 93q0 48 34 98t79 62q19 5 25 5q11 0 11 -8z" />
    <glyph glyph-name="quotedblright" unicode="&#x201d;" horiz-adv-x="484" 
d="M409 581q0 -48 -34.5 -98.5t-79.5 -62.5q-15 -4 -25 -4t-10 7t15 39.5t17 42.5q7 31 -4 57q-25 16 -25 46q0 27 20 48t47 21q10 0 20 -3q59 -17 59 -93zM237 632q0 -48 -34.5 -97.5t-79.5 -62.5q-18 -5 -24 -5q-11 0 -11 8q0 6 15 38.5t17 42.5q7 31 -4 58q-25 16 -25 45
q0 27 20 48t47 21q10 0 20 -3q59 -17 59 -93z" />
    <glyph glyph-name="quoteleft" unicode="&#x2018;" horiz-adv-x="297" 
d="M227 714q0 -6 -14 -37q-16 -34 -18 -44q-8 -32 4 -57q24 -16 24 -46q0 -28 -19.5 -48.5t-47.5 -20.5q-9 0 -19 3q-59 17 -59 93q0 48 34 98t79 62q19 5 25 5q11 0 11 -8z" />
    <glyph glyph-name="quoteright" unicode="&#x2019;" horiz-adv-x="282" 
d="M229 613q0 -48 -33 -97q-35 -52 -80 -64q-15 -4 -25 -4q-11 0 -11 8q0 6 15 38t17 43q7 31 -4 57q-24 16 -24 46q0 28 19.5 48.5t47.5 20.5q9 0 19 -3q59 -17 59 -93z" />
    <glyph glyph-name="divide" unicode="&#xf7;" 
d="M326 448q0 -26 -28 -46t-55 -20q-58 0 -58 62q0 27 27 47t55 20q27 0 43 -17.5t16 -45.5zM454 269q0 -25 -16 -41t-41 -16h-305q-25 0 -41 16t-16 41t16 41.5t41 16.5h305q25 0 41 -16.5t16 -41.5zM307 98q0 -26 -30.5 -47t-58.5 -21q-56 0 -56 62q0 27 26.5 47t54.5 20
q27 0 45.5 -17t18.5 -44z" />
    <glyph glyph-name="lozenge" unicode="&#x25ca;" horiz-adv-x="743" 
d="M733 391q0 -55 -113 -155q-65 -55 -193 -165q-16 -14 -34 -14q-58 0 -167 116l-159 174q-17 18 -17 37q0 51 115 139q72 54 217 163q13 10 30 10q58 0 163 -111q48 -53 143 -158q15 -16 15 -36zM594 387l-180 177l-220 -180l195 -191z" />
    <glyph glyph-name="ydieresis" unicode="&#xff;" horiz-adv-x="562" 
d="M461 594q0 -26 -30.5 -47t-58.5 -21q-56 0 -56 62q0 27 26.5 47t54.5 20q27 0 45.5 -17t18.5 -44zM249 548q0 -26 -28 -46t-56 -20q-57 0 -57 62q0 27 28 48q25 19 53 19t44 -17.5t16 -45.5zM505 442q0 -8 -1 -13q-27 -140 -104 -336q-60 -153 -119 -268q-16 -31 -49 -31
q-24 0 -42.5 16t-18.5 40q0 12 8 28q43 83 95 209q-84 62 -120 110q-44 59 -68 157q-2 8 -2 16q0 24 17.5 39.5t41.5 15.5q44 0 55 -44q16 -66 40.5 -103t78.5 -80q51 140 74 253q9 46 55 46q25 0 42 -15t17 -40z" />
    <glyph glyph-name="Ydieresis" unicode="&#x178;" horiz-adv-x="562" 
d="M443 689q0 -26 -30.5 -47t-58.5 -21q-56 0 -56 62q0 27 26 47t54 20t46.5 -17t18.5 -44zM251 690q0 -27 -27.5 -47t-55.5 -20q-58 0 -58 62q0 27 27 47.5t55 20.5q27 0 43 -18t16 -45zM523 566q0 -13 -7 -27q-39 -78 -174 -247l-1 -267q0 -26 -16 -42t-42 -16
q-25 0 -41 16.5t-16 41.5l1 263q-49 31 -73 55q-35 36 -64 96q-31 65 -31 110q0 25 17 40t42 15q46 0 55 -45q13 -63 32 -95q22 -37 71 -70q108 139 137 196q17 33 49 33q24 0 42.5 -16.5t18.5 -40.5z" />
    <glyph glyph-name="fraction" unicode="&#x2044;" horiz-adv-x="563" 
d="M545 577q0 -17 -11 -33l-384 -570q-18 -26 -46 -26q-24 0 -42 16.5t-18 40.5q0 18 10 33l385 570q18 26 46 26q23 0 41.5 -17t18.5 -40z" />
    <glyph glyph-name="guilsinglleft" unicode="&#x2039;" horiz-adv-x="452" 
d="M399 120q0 -23 -17 -41.5t-40 -18.5q-18 0 -35 12q-57 40 -171 121q-58 41 -58 69t51 68.5t153 120.5q18 14 36 14q24 0 41 -18t17 -42q0 -27 -22 -44l-120 -95l141 -100q24 -17 24 -46z" />
    <glyph glyph-name="guilsinglright" unicode="&#x203a;" horiz-adv-x="452" 
d="M424 262q0 -28 -58 -68.5t-172 -121.5q-17 -12 -34 -12q-24 0 -40.5 18.5t-16.5 41.5q0 29 24 46l141 100l-120 95q-22 17 -22 44q0 24 17 42t41 18q18 0 36 -14l153 -120q51 -41 51 -69z" />
    <glyph glyph-name="daggerdbl" unicode="&#x2021;" horiz-adv-x="422" 
d="M391 323q0 -25 -15.5 -41.5t-41.5 -16.5h-52v-149q0 -25 -16 -41t-42 -16q-25 0 -41 16t-16 41v149h-48q-25 0 -41.5 16.5t-16.5 41.5t16.5 38.5t41.5 13.5h48v63h-44q-25 0 -41 13.5t-16 39.5q0 25 16 41t41 16h44v50q0 27 18 45t45 18q52 0 52 -53v-60h46q26 0 42 -16
t16 -41q0 -26 -16 -39.5t-42 -13.5h-46v-63h52q26 0 41.5 -13.5t15.5 -38.5z" />
    <glyph glyph-name="periodcentered" unicode="&#xb7;" horiz-adv-x="343" 
d="M254 416q0 -34 -24.5 -57.5t-57.5 -23.5q-34 0 -57.5 24t-23.5 57q0 34 23.5 57.5t57.5 23.5t58 -23.5t24 -57.5z" />
    <glyph glyph-name="periodcentered" unicode="&#x2219;" horiz-adv-x="343" 
d="M254 416q0 -34 -24.5 -57.5t-57.5 -23.5q-34 0 -57.5 24t-23.5 57q0 34 23.5 57.5t57.5 23.5t58 -23.5t24 -57.5z" />
    <glyph glyph-name="quotesinglbase" unicode="&#x201a;" horiz-adv-x="281" 
d="M212 32q0 -48 -34.5 -98t-78.5 -62q-19 -5 -25 -5q-11 0 -11 8q0 6 15 38.5t17 42.5q7 31 -4 57q-24 16 -24 46q0 27 19.5 48t46.5 21q10 0 20 -3q59 -17 59 -93z" />
    <glyph glyph-name="quotedblbase" unicode="&#x201e;" horiz-adv-x="490" 
d="M445 80q0 -47 -34.5 -97.5t-78.5 -62.5q-15 -4 -25 -4q-11 0 -11 7q0 6 15 38.5t17 43.5q7 31 -4 57q-24 16 -24 45q0 28 19.5 48.5t47.5 20.5q12 0 19 -2q59 -16 59 -94zM248 55q0 -48 -34 -98t-79 -62q-19 -5 -25 -5q-11 0 -11 8q0 6 15 38t17 43q7 32 -4 57
q-24 16 -24 46q0 28 19.5 48.5t47.5 20.5q9 0 19 -3q59 -17 59 -93z" />
    <glyph glyph-name="perthousand" unicode="&#x2030;" horiz-adv-x="828" 
d="M779 388q0 -53 -38 -91t-91 -38q-54 0 -92 37.5t-38 91.5t38 92t92 38t91.5 -38t37.5 -92zM650 661q0 -17 -10 -31l-447 -633q-16 -23 -41 -23q-21 0 -37.5 15.5t-16.5 36.5q0 15 11 31l303 429l-46 3q-19 -44 -58.5 -69.5t-87.5 -25.5q-66 0 -112 46.5t-46 112.5
t46 112.5t112 46.5q55 0 98 -33.5t56 -86.5l107 -8l74 106q15 22 41 22q21 0 37.5 -15t16.5 -36zM640 152q0 -59 -42 -101t-101 -42q-60 0 -102 41.5t-42 101.5t42 102t102 42t101.5 -42t41.5 -102zM686 388q0 15 -10.5 26t-25.5 11t-25.5 -11t-10.5 -26t10.5 -25.5
t25.5 -10.5t25.5 10.5t10.5 25.5zM282 549q0 23 -16 39t-39 16t-39.5 -16t-16.5 -39t16.5 -39.5t39.5 -16.5t39 16.5t16 39.5zM537 152q0 17 -11.5 28.5t-28.5 11.5t-28.5 -11.5t-11.5 -28.5t11.5 -28.5t28.5 -11.5q16 0 28 12t12 28z" />
    <glyph glyph-name="Acircumflex" unicode="&#xc2;" horiz-adv-x="625" 
d="M434 709q0 -16 -24 -26q-19 -8 -38 -8q-30 0 -47 14l-63 52l-72 -53q-18 -13 -44 -13q-20 0 -38 8q-24 10 -24 26q0 12 14 21q70 50 99 65q39 21 68 21t66 -22q27 -16 91 -66q12 -9 12 -19zM581 195q0 -47 -43 -56q7 -48 10 -109q1 -26 -15 -43.5t-42 -17.5
q-54 0 -57 54.5t-12 113.5l-160 -1q-26 0 -42 15.5t-16 41.5q0 25 16.5 41t41.5 16l136 2q-43 160 -115 248q-36 -65 -69 -230q-26 -131 -33 -216q-4 -53 -56 -53q-28 0 -44 18t-14 45q11 131 40 262q41 183 96 261q-4 26 13.5 47.5t43.5 21.5q18 0 32 -9q153 -96 224 -395
h8q26 0 41.5 -15.5t15.5 -41.5z" />
    <glyph glyph-name="Ecircumflex" unicode="&#xca;" horiz-adv-x="578" 
d="M408 702q0 -16 -20 -27q-16 -9 -35 -9q-26 0 -41 15l-56 57l-64 -58q-15 -14 -39 -14q-18 0 -35 9q-20 11 -20 27q0 13 12 23q56 49 88 70q36 24 61 24q26 0 58 -24q22 -15 80 -72q11 -10 11 -21zM506 576q0 -54 -56 -57q-59 -3 -222 -36v-119q120 28 143 42q14 8 30 8
q25 0 41 -18t16 -42q0 -31 -29 -48q-41 -25 -201 -60v-138q23 -4 47 -4q80 0 133 47q18 16 38 16q24 0 41 -18.5t17 -41.5q0 -24 -20 -42q-85 -76 -208 -76q-68 0 -129 24q-37 15 -37 51q0 9 3 17v148q-49 7 -49 57q0 51 49 57v111q-24 0 -40.5 17.5t-16.5 42.5q0 46 90 71
q1 0 125 23t175 25q27 1 43.5 -14.5t16.5 -42.5z" />
    <glyph glyph-name="Aacute" unicode="&#xc1;" horiz-adv-x="672" 
d="M377 735q-89 -41 -111 -41q-21 0 -21 18q0 32 56.5 74t92.5 42q22 0 40 -15q14 -12 14 -24q0 -16 -27 -32q-5 -3 -44 -22zM597 195q0 -47 -43 -56q7 -48 10 -109q1 -26 -15 -43.5t-42 -17.5q-54 0 -57 54.5t-12 113.5l-160 -1q-26 0 -42 15.5t-16 41.5q0 25 16.5 41
t41.5 16l136 2q-43 160 -115 248q-36 -65 -69 -230q-26 -131 -33 -216q-4 -53 -56 -53q-28 0 -44 18t-14 45q11 131 40 262q41 183 96 261q-4 26 13.5 47.5t43.5 21.5q18 0 32 -9q153 -96 224 -395h8q26 0 41.5 -15.5t15.5 -41.5z" />
    <glyph glyph-name="Edieresis" unicode="&#xcb;" horiz-adv-x="578" 
d="M206 730q0 -28 -24 -48.5t-51 -20.5q-57 0 -57 61q0 32 26 51q23 17 56 17q50 0 50 -60zM483 576q0 -54 -56 -57q-59 -3 -222 -36v-119q120 28 143 42q14 8 30 8q24 0 40.5 -18t16.5 -42q0 -31 -29 -48q-41 -25 -201 -60v-138q23 -4 47 -4q80 0 133 47q18 16 38 16
q23 0 40.5 -18.5t17.5 -41.5q0 -24 -20 -42q-85 -76 -208 -76q-68 0 -129 24q-37 15 -37 51q0 9 3 17v148q-49 7 -49 57q0 51 49 57v111q-24 0 -40.5 17.5t-16.5 42.5q0 46 89 71q1 0 125.5 23t175.5 25q27 1 43.5 -14.5t16.5 -42.5zM416 750q0 -27 -24 -48t-51 -21
q-57 0 -57 61q0 32 24 50t58 18q50 0 50 -60z" />
    <glyph glyph-name="Egrave" unicode="&#xc8;" horiz-adv-x="578" 
d="M360 693q0 -11 -28 -11q-75 0 -146 41q-42 25 -42 47q0 18 17.5 33t36.5 15q44 0 105 -50q57 -46 57 -75zM514 576q0 -54 -56 -57q-60 -3 -222 -36v-119q120 28 143 42q13 8 30 8q24 0 40.5 -18t16.5 -42q0 -31 -29 -48q-42 -25 -201 -60v-138q23 -4 47 -4q80 0 133 47
q18 16 38 16q23 0 40.5 -18.5t17.5 -41.5q0 -24 -20 -42q-86 -76 -208 -76q-69 0 -129 24q-37 15 -37 51q0 9 3 17v148q-49 7 -49 57q0 51 49 57v111q-25 0 -41 17.5t-16 42.5q0 46 89 71q1 0 125 23t176 25q26 1 43 -14.5t17 -42.5z" />
    <glyph glyph-name="Iacute" unicode="&#xcd;" horiz-adv-x="440" 
d="M335 768q0 -27 -44 -50q-76 -42 -134 -42h-23q-7 1 -7 9q0 29 54 77q60 54 104 54q19 0 34.5 -15t15.5 -33zM404 67q0 -64 -148 -97q-72 -16 -133 -16q-25 0 -41 16.5t-16 41.5t16 41.5t41 16.5h41v394l-17 -4q-8 -2 -17 -2q-23 0 -39 17.5t-16 41.5q0 43 43 54l196 51
q8 2 16 2q25 0 40.5 -19t15.5 -44q0 -44 -43 -53l-64 -14v-400q19 6 24 12q18 20 41 20q24 0 42 -18t18 -41z" />
    <glyph glyph-name="Icircumflex" unicode="&#xce;" horiz-adv-x="440" 
d="M345 712q0 -16 -15 -26.5t-35 -10.5q-24 0 -38 16l-52 58l-58 -59q-14 -15 -38 -15q-19 0 -34 10.5t-15 27.5q0 14 39 50q28 27 53 45q33 24 56 24q24 0 54 -25q83 -69 83 -95zM388 67q0 -64 -148 -97q-72 -16 -133 -16q-25 0 -41 16.5t-16 41.5t16 41.5t41 16.5h41v394
l-17 -4q-8 -2 -17 -2q-23 0 -39 17.5t-16 41.5q0 43 43 54l196 51q8 2 16 2q25 0 40.5 -19t15.5 -44q0 -44 -43 -53l-64 -14v-400q19 6 24 12q18 20 41 20q24 0 42 -18t18 -41z" />
    <glyph glyph-name="Idieresis" unicode="&#xcf;" horiz-adv-x="440" 
d="M386 743q0 -26 -30.5 -47t-57.5 -21q-57 0 -57 62q0 27 28 48q25 19 53 19q27 0 45.5 -17t18.5 -44zM189 709q0 -27 -28 -46.5t-56 -19.5q-57 0 -57 62q0 27 27 47t55 20q27 0 43 -18t16 -45zM388 67q0 -64 -148 -97q-72 -16 -133 -16q-25 0 -41 16.5t-16 41.5t16 41.5
t41 16.5h41v394l-17 -4q-8 -2 -17 -2q-23 0 -39 17.5t-16 41.5q0 43 43 54l196 51q8 2 16 2q25 0 40.5 -19t15.5 -44q0 -44 -43 -53l-64 -14v-400q19 6 24 12q18 20 41 20q24 0 42 -18t18 -41z" />
    <glyph glyph-name="Igrave" unicode="&#xcc;" horiz-adv-x="440" 
d="M313 675q0 -16 -31 -16q-39 0 -105.5 31.5t-66.5 65.5q0 39 48 39q37 0 96 -43.5t59 -76.5zM409 67q0 -64 -148 -97q-72 -16 -133 -16q-25 0 -41 16.5t-16 41.5t16 41.5t41 16.5h41v394l-17 -4q-9 -2 -17 -2q-24 0 -39.5 17.5t-15.5 41.5q0 43 43 54l196 51q8 2 16 2
q25 0 40.5 -19t15.5 -44q0 -44 -43 -53l-64 -14v-400q19 6 24 12q18 20 41 20t41.5 -18t18.5 -41z" />
    <glyph glyph-name="Oacute" unicode="&#xd3;" horiz-adv-x="560" 
d="M460 785q0 -24 -52 -48q-74 -34 -149 -34q-36 0 -36 14q0 33 74 72q68 35 106 35q19 0 36 -9q21 -12 21 -30zM509 375q0 -154 -58 -277q-67 -143 -180 -143q-118 0 -175 115q-41 82 -41 180q0 130 53 246q75 163 219 163q109 0 154 -113q28 -70 28 -171zM388 399
q0 114 -45 123q-10 2 -21 2q-72 0 -111 -105q-29 -78 -29 -154q0 -169 60 -183q8 -2 15 -2q51 0 87 83q44 101 44 236z" />
    <glyph glyph-name="Ocircumflex" unicode="&#xd4;" horiz-adv-x="560" 
d="M460 719q0 -14 -19 -23q-15 -8 -31 -8q-24 0 -37 13l-52 50l-57 -51q-14 -12 -36 -12q-17 0 -32 8q-18 9 -18 24q0 10 11 19q99 83 136 83q23 0 53 -21q20 -14 73 -63q9 -8 9 -19zM509 375q0 -154 -58 -277q-67 -143 -180 -143q-118 0 -175 115q-41 82 -41 180
q0 130 53 246q75 163 219 163q109 0 154 -113q28 -70 28 -171zM388 399q0 114 -45 123q-10 2 -21 2q-72 0 -111 -105q-29 -78 -29 -154q0 -169 60 -183q8 -2 15 -2q51 0 87 83q44 101 44 236z" />
    <glyph glyph-name="apple" unicode="&#xf8ff;" horiz-adv-x="917" 
d="M813 236q0 -65 -73 -147q-74 -85 -139 -85q-20 0 -58.5 13t-57.5 13q-17 0 -54 -13.5t-57 -13.5q-100 0 -173 137q-63 118 -63 226q0 96 47 171q59 94 169 94q21 0 44 -5q2 0 19 -6q14 60 58 106q55 58 116 58q69 0 69 -74q0 -42 -16 -80q40 -9 83 -36q66 -42 66 -86
q0 -22 -22 -41q-51 -43 -51 -87q0 -38 24 -63q22 -17 44 -35q25 -23 25 -46zM681 215q-34 27 -55 73.5t-21 91.5q0 70 46 128q-20 11 -44 11q-21 0 -63 -13.5t-64 -13.5t-64 12t-62 12q-51 0 -79 -52q-22 -42 -22 -98q0 -52 37 -143q43 -105 84 -105q16 0 53 13.5t58 13.5
q20 0 59.5 -13t56.5 -13t46 39q19 26 34 57z" />
    <glyph glyph-name="Ograve" unicode="&#xd2;" horiz-adv-x="560" 
d="M417 731q0 -15 -32 -15q-47 0 -107 25q-73 28 -73 63q0 18 15.5 30t34.5 12q46 0 106 -45q56 -42 56 -70zM509 375q0 -154 -58 -277q-67 -143 -180 -143q-118 0 -175 115q-41 82 -41 180q0 130 53 246q75 163 219 163q109 0 154 -113q28 -70 28 -171zM388 399
q0 114 -45 123q-10 2 -21 2q-72 0 -111 -105q-29 -78 -29 -154q0 -169 60 -183q8 -2 15 -2q51 0 87 83q44 101 44 236z" />
    <glyph glyph-name="Uacute" unicode="&#xda;" horiz-adv-x="590" 
d="M453 691q-65 -36 -104 -36q-28 0 -28 14q0 38 58 90t97 52q18 0 34 -15t16 -33q0 -31 -73 -72zM292 -18q-61 0 -110 46q-43 40 -66 103q-19 53 -19 125q0 86 26 186q21 82 52 142q16 32 49 32q26 0 43 -16.5t17 -40.5q0 -14 -7 -27q-65 -128 -65 -256q0 -57 16 -108
q22 -72 67 -72q59 0 93 117q20 72 26 161t3 142q-1 26 15.5 43t43.5 17q69 0 67 -53q-7 -162 -13 -213q-18 -145 -64 -224q-61 -104 -174 -104z" />
    <glyph glyph-name="Ucircumflex" unicode="&#xdb;" horiz-adv-x="590" 
d="M525 691q0 -17 -18 -26.5t-36 -9.5q-23 0 -40 16l-56 55l-63 -56q-16 -15 -39 -15q-17 0 -34 9q-20 10 -20 27q0 11 12 22q63 53 87 70q35 23 60 23q26 0 58 -24q26 -19 79 -70q10 -10 10 -21zM276 -18q-61 0 -110 46q-43 40 -66 103q-19 53 -19 125q0 86 26 186
q21 82 52 142q16 32 49 32q26 0 43 -16.5t17 -40.5q0 -14 -7 -27q-65 -128 -65 -256q0 -57 16 -108q22 -72 67 -72q59 0 93 117q20 72 26 161t3 142q-1 26 15.5 43t43.5 17q69 0 67 -53q-7 -162 -13 -213q-18 -145 -64 -224q-61 -104 -174 -104z" />
    <glyph glyph-name="Ugrave" unicode="&#xd9;" horiz-adv-x="590" 
d="M475 649q0 -15 -19 -15q-21 0 -119 40q-53 22 -53 65q0 19 12.5 35t31.5 16q39 0 91 -56q56 -61 56 -85zM292 -18q-61 0 -110 46q-43 40 -66 103q-19 53 -19 125q0 86 26 186q21 82 52 142q16 32 49 32q26 0 43 -16.5t17 -40.5q0 -14 -7 -27q-65 -128 -65 -256
q0 -57 16 -108q22 -72 67 -72q59 0 93 117q20 72 26 161t3 142q-1 26 15.5 43t43.5 17q69 0 67 -53q-7 -162 -13 -213q-18 -145 -64 -224q-61 -104 -174 -104z" />
    <glyph glyph-name="dotlessi" unicode="&#x131;" horiz-adv-x="300" 
d="M193 33q0 -22 -18.5 -38.5t-41.5 -16.5q-25 0 -41 16.5t-16 41.5v354q0 30 21.5 52.5t51.5 22.5q44 0 44 -48v-384z" />
    <glyph glyph-name="circumflex" unicode="&#x2c6;" horiz-adv-x="453" 
d="M404 558q0 -18 -18 -30t-37 -12q-25 0 -41 18l-57 65l-63 -66q-16 -17 -40 -17q-19 0 -36.5 11.5t-17.5 30.5q0 14 12 26q61 60 88 81q35 27 61 27q25 0 58 -28q25 -21 80 -82q11 -12 11 -24z" />
    <glyph glyph-name="tilde" unicode="&#x2dc;" horiz-adv-x="479" 
d="M444 641q0 -15 -16 -30q-78 -72 -124 -72q-24 0 -66.5 28t-57.5 28q-22 0 -48.5 -26.5t-36.5 -28.5q-19 -3 -38.5 10t-19.5 33q0 19 21 32l72 48q33 21 55 21q27 0 64.5 -28t46.5 -28q18 0 48 26.5t51 26.5q18 0 33.5 -11.5t15.5 -28.5z" />
    <glyph glyph-name="macron" unicode="&#xaf;" horiz-adv-x="516" 
d="M468 607q0 -26 -15.5 -38.5t-41.5 -12.5h-295q-26 0 -42 12.5t-16 38.5q0 25 16.5 39t41.5 14h295q25 0 41 -14t16 -39z" />
    <glyph glyph-name="macron" unicode="&#x2c9;" horiz-adv-x="516" 
d="M468 607q0 -26 -15.5 -38.5t-41.5 -12.5h-295q-26 0 -42 12.5t-16 38.5q0 25 16.5 39t41.5 14h295q25 0 41 -14t16 -39z" />
    <glyph glyph-name="breve" unicode="&#x2d8;" horiz-adv-x="430" 
d="M377 594q0 -8 -4 -16q-39 -98 -149 -104q-75 -4 -123 38.5t-48 86.5q0 14 11 24t25 10q20 0 30 -21q40 -76 106 -69q56 -4 86 64q10 20 30 20q14 0 25 -9.5t11 -23.5z" />
    <glyph glyph-name="dotaccent" unicode="&#x2d9;" horiz-adv-x="425" 
d="M300 597q0 -31 -21.5 -52.5t-52.5 -21.5t-52.5 21.5t-21.5 52.5t21.5 52.5t52.5 21.5t52.5 -21.5t21.5 -52.5z" />
    <glyph glyph-name="ring" unicode="&#x2da;" horiz-adv-x="447" 
d="M341 553q0 -47 -33 -79.5t-80 -32.5t-79.5 32.5t-32.5 79.5t32.5 80t79.5 33t80 -33t33 -80zM272 553q0 18 -13 31t-31 13t-30.5 -13t-12.5 -31t12.5 -30.5t30.5 -12.5t31 12.5t13 30.5z" />
    <glyph glyph-name="cedilla" unicode="&#xb8;" horiz-adv-x="400" 
d="M343 -113q2 -69 -48 -94q-40 -20 -87 -20q-80 0 -80 35q0 17 12.5 26t28.5 5q13 -3 39 -4q70 -2 72 54q-15 18 -71 20q-62 3 -59 25q0 10 4 20l19 49q9 22 31 22q33 0 33 -36q0 -12 -5 -25q111 -13 111 -77z" />
    <glyph glyph-name="hungarumlaut" unicode="&#x2dd;" horiz-adv-x="437" 
d="M377 626q0 -34 -44 -78.5t-78 -44.5q-25 0 -25 27q0 37 37 84t73 47q14 0 25.5 -10.5t11.5 -24.5zM231 647q0 -34 -44 -79t-78 -45q-25 0 -25 28q0 36 38 82.5t73 46.5q36 0 36 -33z" />
    <glyph glyph-name="ogonek" unicode="&#x2db;" horiz-adv-x="370" 
d="M312 -166q0 -14 -10 -25.5t-24 -11.5q-8 0 -17 5q-95 52 -95 108q0 55 82 103q9 5 18 5q14 0 24 -11t10 -25q0 -19 -17 -29q-47 -28 -47 -41q0 -18 57 -49q19 -10 19 -29z" />
    <glyph glyph-name="caron" unicode="&#x2c7;" horiz-adv-x="448" 
d="M370 702q0 -11 -7 -21q-68 -97 -131 -108q-66 11 -144 109q-8 10 -8 22q0 14 11 24.5t25 10.5q15 0 26 -14l85 -71l80 67q11 15 27 15q14 0 25 -10t11 -24z" />
    <glyph glyph-name="zero.slash" horiz-adv-x="530" 
d="M468 284q-1 -115 -51 -192q-59 -92 -167 -92t-170 116q-46 86 -46 173q0 98 52 181q62 98 164 98q118 0 177 -113q42 -81 41 -171zM360 283q1 34 -23 94l-110 -251q20 -8 29 -8q101 5 104 165zM279 446q-19 7 -36 7q-49 0 -78 -56q-24 -47 -24 -104q0 -48 27 -105z" />
    <glyph glyph-name="zero.dot" horiz-adv-x="530" 
d="M468 284q-1 -115 -51 -192q-59 -92 -167 -92t-170 116q-46 86 -46 173q0 98 52 181q62 98 164 98q118 0 177 -113q42 -81 41 -171zM353 289q1 48 -19 94q-29 67 -88 67q-49 0 -76 -59q-21 -46 -21 -102q0 -53 25 -105q31 -65 83 -63q93 4 96 168zM300 286
q0 -19 -13.5 -33t-32.5 -14t-32 14t-13 33t14 34t33 15t31.5 -15t12.5 -34z" />
    <glyph glyph-name="Omega" unicode="&#x3a9;" horiz-adv-x="734" 
d="M674 436q6 -77 -28 -161q-22 -54 -78 -145q-13 -21 -26 -36h70q25 0 41.5 -16.5t16.5 -41.5t-16.5 -41t-41.5 -16h-166q-64 0 -64 55q0 42 29 80q10 14 52 65q50 75 69 116q32 70 27 132q-9 113 -104 113q-83 0 -149.5 -72.5t-66.5 -156.5q0 -48 21 -91q9 -22 47 -92
q21 -33 21 -63q0 -58 -70 -57l-121 1q-26 0 -42.5 16t-16.5 42q0 25 16 41t41 16h47q-57 98 -57 194q0 134 102.5 235t236.5 101q96 0 151 -62q51 -57 59 -156z" />
    <glyph glyph-name="Omega" unicode="&#x2126;" horiz-adv-x="734" 
d="M674 436q6 -77 -28 -161q-22 -54 -78 -145q-13 -21 -26 -36h70q25 0 41.5 -16.5t16.5 -41.5t-16.5 -41t-41.5 -16h-166q-64 0 -64 55q0 42 29 80q10 14 52 65q50 75 69 116q32 70 27 132q-9 113 -104 113q-83 0 -149.5 -72.5t-66.5 -156.5q0 -48 21 -91q9 -22 47 -92
q21 -33 21 -63q0 -58 -70 -57l-121 1q-26 0 -42.5 16t-16.5 42q0 25 16 41t41 16h47q-57 98 -57 194q0 134 102.5 235t236.5 101q96 0 151 -62q51 -57 59 -156z" />
    <glyph glyph-name="approxequal" unicode="&#x2248;" horiz-adv-x="531" 
d="M491 376q0 -14 -11 -28q-63 -79 -117 -79q-38 0 -76 33q-60 51 -81 51q-20 0 -73 -46q-13 -11 -29 -11q-18 0 -31.5 14t-13.5 32q0 19 16 33q80 68 131 68q54 0 139 -73q13 -11 17 -12q15 2 49 45q14 18 34 18q18 0 32 -13.5t14 -31.5zM489 203q0 -19 -14 -32
q-63 -60 -111 -60q-41 0 -109 51q-32 24 -48 24q-13 0 -27 -14l-37 -37q-13 -11 -29 -11q-18 0 -31.5 14t-13.5 32q0 19 16 33l56 48q37 28 66 28q40 0 101 -46q43 -32 53 -32q17 0 53 35q14 13 30 13q18 0 31.5 -14t13.5 -32z" />
    <glyph glyph-name="Euro" unicode="&#x20ac;" horiz-adv-x="718" 
d="M640 514q0 -24 -18 -40t-42 -16q-33 0 -49 32q-11 22 -21 32q-102 -16 -153 -110h92q23 0 41 -12.5t18 -34.5q0 -44 -56 -44h-126q-4 -21 -5 -44h97q23 0 41 -12t18 -34q0 -44 -56 -44h-93q22 -97 79 -92q65 5 116 89q17 28 47 28q24 0 42 -16.5t18 -40.5q0 -16 -9 -31
q-89 -145 -209 -145q-80 0 -136 66q-48 57 -64 142h-56q-23 0 -41 12t-18 34q0 44 56 44h52q0 23 2 44h-20q-24 0 -40 11q-19 13 -19 36q0 44 56 44h43q39 111 141 176q82 52 142 52q74 0 123 -98q7 -14 7 -28z" />
  </font>
</defs>
</svg>
